<svg width="13" height="16" viewBox="0 0 13 16" fill="none" xmlns="http://www.w3.org/2000/svg">
<g clip-path="url(#clip0)">
<path opacity="0.4" d="M12.5 4H9C8.86739 4 8.74022 3.94732 8.64645 3.85356C8.55268 3.75979 8.5 3.63261 8.5 3.5V2.35571e-06H1.25C1.15176 -0.000244182 1.05443 0.0188626 0.963564 0.0562318C0.872703 0.093601 0.790092 0.148501 0.720448 0.217797C0.650804 0.287092 0.595491 0.369427 0.557667 0.4601C0.519843 0.550772 0.500248 0.648007 0.500002 0.746252V15.25C0.499756 15.3482 0.518863 15.4456 0.556232 15.5364C0.593601 15.6273 0.648501 15.7099 0.717797 15.7796C0.787092 15.8492 0.869427 15.9045 0.9601 15.9423C1.05077 15.9802 1.14801 15.9998 1.24625 16H11.75C11.8482 16.0002 11.9456 15.9811 12.0364 15.9438C12.1273 15.9064 12.2099 15.8515 12.2796 15.7822C12.3492 15.7129 12.4045 15.6306 12.4423 15.5399C12.4802 15.4492 12.4998 15.352 12.5 15.2538V4ZM9.5 11.625C9.5 11.7245 9.46049 11.8198 9.39017 11.8902C9.31984 11.9605 9.22446 12 9.125 12H3.875C3.77555 12 3.68016 11.9605 3.60984 11.8902C3.53951 11.8198 3.5 11.7245 3.5 11.625V11.375C3.5 11.2755 3.53951 11.1802 3.60984 11.1098C3.68016 11.0395 3.77555 11 3.875 11H9.125C9.22446 11 9.31984 11.0395 9.39017 11.1098C9.46049 11.1802 9.5 11.2755 9.5 11.375V11.625ZM9.5 9.625C9.5 9.72446 9.46049 9.81984 9.39017 9.89017C9.31984 9.96049 9.22446 10 9.125 10H3.875C3.77555 10 3.68016 9.96049 3.60984 9.89017C3.53951 9.81984 3.5 9.72446 3.5 9.625V9.375C3.5 9.27555 3.53951 9.18016 3.60984 9.10984C3.68016 9.03951 3.77555 9 3.875 9H9.125C9.22446 9 9.31984 9.03951 9.39017 9.10984C9.46049 9.18016 9.5 9.27555 9.5 9.375V9.625ZM9.5 7.625C9.5 7.72446 9.46049 7.81984 9.39017 7.89017C9.31984 7.96049 9.22446 8 9.125 8H3.875C3.77555 8 3.68016 7.96049 3.60984 7.89017C3.53951 7.81984 3.5 7.72446 3.5 7.625V7.375C3.5 7.27555 3.53951 7.18016 3.60984 7.10984C3.68016 7.03951 3.77555 7 3.875 7H9.125C9.22446 7 9.31984 7.03951 9.39017 7.10984C9.46049 7.18016 9.5 7.27555 9.5 7.375V7.625Z" fill="#353535"/>
<path d="M12.2812 3.28125L9.22188 0.218752C9.15205 0.149165 9.06918 0.0940266 8.97803 0.0564914C8.88687 0.0189562 8.78921 -0.00023949 8.69063 2.25522e-06H8.5V3.5C8.5 3.63261 8.55268 3.75979 8.64645 3.85356C8.74021 3.94732 8.86739 4 9 4H12.5V3.80938C12.5 3.7113 12.4807 3.61417 12.4432 3.52356C12.4056 3.43294 12.3506 3.35061 12.2812 3.28125ZM9.125 11H3.875C3.77554 11 3.68016 11.0395 3.60983 11.1098C3.53951 11.1802 3.5 11.2755 3.5 11.375V11.625C3.5 11.7245 3.53951 11.8198 3.60983 11.8902C3.68016 11.9605 3.77554 12 3.875 12H9.125C9.22446 12 9.31984 11.9605 9.39017 11.8902C9.46049 11.8198 9.5 11.7245 9.5 11.625V11.375C9.5 11.2755 9.46049 11.1802 9.39017 11.1098C9.31984 11.0395 9.22446 11 9.125 11ZM9.125 9H3.875C3.77554 9 3.68016 9.03951 3.60983 9.10984C3.53951 9.18016 3.5 9.27555 3.5 9.375V9.625C3.5 9.72446 3.53951 9.81984 3.60983 9.89017C3.68016 9.96049 3.77554 10 3.875 10H9.125C9.22446 10 9.31984 9.96049 9.39017 9.89017C9.46049 9.81984 9.5 9.72446 9.5 9.625V9.375C9.5 9.27555 9.46049 9.18016 9.39017 9.10984C9.31984 9.03951 9.22446 9 9.125 9ZM9.125 7H3.875C3.77554 7 3.68016 7.03951 3.60983 7.10984C3.53951 7.18016 3.5 7.27555 3.5 7.375V7.625C3.5 7.72446 3.53951 7.81984 3.60983 7.89017C3.68016 7.96049 3.77554 8 3.875 8H9.125C9.22446 8 9.31984 7.96049 9.39017 7.89017C9.46049 7.81984 9.5 7.72446 9.5 7.625V7.375C9.5 7.27555 9.46049 7.18016 9.39017 7.10984C9.31984 7.03951 9.22446 7 9.125 7Z" fill="#353535"/>
</g>
<defs>
<clipPath id="clip0">
<rect width="12" height="16" fill="white" transform="translate(0.5)"/>
</clipPath>
</defs>
</svg>
