<svg width="32" height="32" viewBox="0 0 32 32" fill="none" xmlns="http://www.w3.org/2000/svg">
<path d="M10.6346 25.0641C10.6346 25.1923 10.4872 25.2948 10.3013 25.2948C10.0897 25.3141 9.94231 25.2115 9.94231 25.0641C9.94231 24.9359 10.0897 24.8333 10.2756 24.8333C10.4679 24.8141 10.6346 24.9166 10.6346 25.0641ZM8.64103 24.7756C8.59615 24.9038 8.72436 25.0513 8.91667 25.0897C9.08333 25.1538 9.27564 25.0897 9.3141 24.9615C9.35256 24.8333 9.23077 24.6859 9.03846 24.6282C8.8718 24.5833 8.6859 24.6474 8.64103 24.7756ZM11.4744 24.6666C11.2885 24.7115 11.1603 24.8333 11.1795 24.9807C11.1987 25.1089 11.3654 25.1923 11.5577 25.1474C11.7436 25.1025 11.8718 24.9807 11.8526 24.8525C11.8333 24.7307 11.6603 24.6474 11.4744 24.6666ZM15.6923 0.102539C6.80128 0.102539 0 6.85254 0 15.7436C0 22.8525 4.47436 28.9359 10.8654 31.0769C11.6859 31.2243 11.9744 30.7179 11.9744 30.3013C11.9744 29.9038 11.9551 27.7115 11.9551 26.3654C11.9551 26.3654 7.46795 27.3269 6.52564 24.4551C6.52564 24.4551 5.79487 22.5897 4.74359 22.1089C4.74359 22.1089 3.27564 21.1025 4.84615 21.1218C4.84615 21.1218 6.44231 21.25 7.32051 22.7756C8.72436 25.25 11.0769 24.5384 11.9936 24.1154C12.141 23.0897 12.5577 22.3782 13.0192 21.9551C9.4359 21.5577 5.82051 21.0384 5.82051 14.8718C5.82051 13.1089 6.30769 12.2243 7.33333 11.0961C7.16667 10.6795 6.6218 8.96151 7.5 6.74356C8.83974 6.3269 11.9231 8.47433 11.9231 8.47433C13.2051 8.11536 14.5833 7.92946 15.9487 7.92946C17.3141 7.92946 18.6923 8.11536 19.9744 8.47433C19.9744 8.47433 23.0577 6.32049 24.3974 6.74356C25.2756 8.96792 24.7308 10.6795 24.5641 11.0961C25.5897 12.2307 26.218 13.1154 26.218 14.8718C26.218 21.0577 22.4423 21.5513 18.859 21.9551C19.4487 22.4615 19.9487 23.423 19.9487 24.9295C19.9487 27.0897 19.9295 29.7628 19.9295 30.2884C19.9295 30.7051 20.2244 31.2115 21.0385 31.0641C27.4487 28.9359 31.7949 22.8525 31.7949 15.7436C31.7949 6.85254 24.5833 0.102539 15.6923 0.102539ZM6.23077 22.2115C6.14744 22.2756 6.16667 22.4231 6.27564 22.5448C6.37821 22.6474 6.52564 22.6923 6.60897 22.6089C6.69231 22.5448 6.67308 22.3974 6.5641 22.2756C6.46154 22.173 6.3141 22.1282 6.23077 22.2115ZM5.53846 21.6923C5.49359 21.7756 5.55769 21.8782 5.6859 21.9423C5.78846 22.0064 5.91667 21.9872 5.96154 21.8974C6.00641 21.8141 5.94231 21.7115 5.8141 21.6474C5.6859 21.6089 5.58333 21.6282 5.53846 21.6923ZM7.61539 23.9743C7.51282 24.0577 7.55128 24.25 7.69872 24.3718C7.84615 24.5192 8.03205 24.5384 8.11539 24.4359C8.19872 24.3525 8.16026 24.1602 8.03205 24.0384C7.89103 23.891 7.69872 23.8718 7.61539 23.9743ZM6.88462 23.032C6.78205 23.0961 6.78205 23.2628 6.88462 23.4102C6.98718 23.5577 7.16026 23.6218 7.24359 23.5577C7.34615 23.4743 7.34615 23.3077 7.24359 23.1602C7.15385 23.0128 6.98718 22.9487 6.88462 23.032Z" fill="white"/>
</svg>
