<svg width="24" height="24" viewBox="0 0 24 24" fill="none" xmlns="http://www.w3.org/2000/svg">
<path opacity="0.4" d="M23.5906 15.1161H21.2371C21.1342 15.1165 21.0324 15.0961 20.9376 15.0562C20.8428 15.0163 20.7571 14.9577 20.6855 14.8839L19.1371 13.3064C19.0319 13.198 18.9734 13.0525 18.9743 12.9014C18.9752 12.7503 19.0354 12.6056 19.1419 12.4984L19.7468 11.8935V11.4726C19.7466 11.3275 19.6892 11.1884 19.5871 11.0855L19.1322 10.6306C19.0293 10.5285 18.8902 10.4711 18.7451 10.471H17.971C17.8628 10.4709 17.757 10.4388 17.6671 10.3787C17.5772 10.3186 17.5071 10.2332 17.4656 10.1333C17.4242 10.0333 17.4133 9.92336 17.4344 9.81726C17.4554 9.71115 17.5074 9.61366 17.5839 9.53709L18.0387 9.08226C18.1416 8.98009 18.2808 8.9227 18.4258 8.92258H19.9742C20.119 8.92194 20.2577 8.86413 20.3601 8.76173C20.4625 8.65933 20.5203 8.52062 20.521 8.3758V7.92097C20.5203 7.77615 20.4625 7.63744 20.3601 7.53504C20.2577 7.43264 20.119 7.37483 19.9742 7.37419H18.1984C17.993 7.37419 17.7961 7.45576 17.6509 7.60095C17.5057 7.74614 17.4242 7.94306 17.4242 8.14839V8.36613C17.4245 8.52855 17.3738 8.68697 17.2791 8.81896C17.1845 8.95096 17.0507 9.04984 16.8968 9.10161L15.3677 9.60967C15.2903 9.63515 15.2229 9.68441 15.1751 9.75044C15.1273 9.81647 15.1016 9.89591 15.1016 9.97742V10.0839C15.1016 10.1865 15.0608 10.285 14.9882 10.3576C14.9156 10.4302 14.8172 10.471 14.7145 10.471H13.9403C13.8376 10.471 13.7392 10.4302 13.6666 10.3576C13.594 10.285 13.5532 10.1865 13.5532 10.0839C13.5532 9.9812 13.5124 9.88274 13.4398 9.81015C13.3672 9.73755 13.2688 9.69677 13.1661 9.69677H13.0161C12.9441 9.69704 12.8736 9.71702 12.8122 9.75456C12.7508 9.79209 12.7008 9.84574 12.6677 9.90967L12.2129 10.8145C12.1486 10.9428 12.0498 11.0507 11.9275 11.1259C11.8053 11.2011 11.6645 11.2408 11.521 11.2403H10.4516C10.2463 11.2403 10.0494 11.1588 9.90417 11.0136C9.75898 10.8684 9.67741 10.6715 9.67741 10.4661V9.24193C9.67776 9.03674 9.75956 8.84008 9.90483 8.69516L10.8774 7.72258C11.101 7.49755 11.2263 7.19305 11.2258 6.87581C11.2258 6.7943 11.2515 6.71486 11.2993 6.64883C11.3471 6.5828 11.4145 6.53354 11.4919 6.50806L13.4274 5.86452C13.5072 5.83742 13.58 5.79278 13.6403 5.73387L14.9371 4.4371C15.0135 4.36054 15.0655 4.26304 15.0866 4.15693C15.1076 4.05083 15.0967 3.94086 15.0553 3.84093C15.0139 3.741 14.9438 3.65559 14.8538 3.59548C14.7639 3.53538 14.6582 3.50327 14.55 3.50323H13.5484L12.7742 4.27742V4.66452C12.7742 4.76718 12.7334 4.86564 12.6608 4.93824C12.5882 5.01083 12.4897 5.05161 12.3871 5.05161H11.6129C11.5102 5.05161 11.4118 5.01083 11.3392 4.93824C11.2666 4.86564 11.2258 4.76718 11.2258 4.66452V3.69678C11.226 3.63671 11.2401 3.57751 11.2669 3.52379C11.2938 3.47007 11.3327 3.42328 11.3806 3.3871L15.3687 0.480004C14.2743 0.160667 13.14 -0.000960488 12 4.29371e-06C5.37096 4.29371e-06 0 5.37097 0 12C0 18.629 5.37096 24 12 24C12.5193 23.9999 13.0381 23.9666 13.5532 23.9003V21.3097C13.5532 21.1043 13.4716 20.9074 13.3265 20.7622C13.1813 20.617 12.9844 20.5355 12.779 20.5355H11.8016C11.279 20.5355 10.5097 20.279 10.0887 19.9645L9.01451 19.1564C8.74085 18.9516 8.51876 18.6857 8.36588 18.3799C8.21301 18.0742 8.13356 17.737 8.13386 17.3952V16.2387C8.13386 15.8586 8.23236 15.4849 8.41977 15.1542C8.60719 14.8235 8.87711 14.5469 9.20322 14.3516L11.279 13.1081C11.6216 12.904 12.0125 12.7954 12.4113 12.7935H13.921C14.4459 12.7935 14.9537 12.9804 15.3532 13.321L17.4435 15.1161H18.329C18.7394 15.1168 19.1327 15.2804 19.4226 15.571L20.2597 16.4081L20.2635 16.4119C20.9032 16.9868 21.2903 17.7881 21.2903 18.6469V19.5968C22.3665 18.2835 23.1507 16.7561 23.5906 15.1161ZM9.06773 7.21452C8.96479 7.31668 8.82567 7.37407 8.68064 7.37419H7.90644C7.79827 7.37415 7.69253 7.34204 7.6026 7.28194C7.51266 7.22183 7.44255 7.13642 7.40113 7.03649C7.3597 6.93656 7.34883 6.82659 7.36987 6.72048C7.39091 6.61438 7.44293 6.51688 7.51935 6.44032L8.74838 5.21129C8.82494 5.13487 8.92243 5.08285 9.02854 5.06181C9.13465 5.04077 9.24462 5.05165 9.34455 5.09307C9.44448 5.13449 9.52989 5.2046 9.58999 5.29454C9.6501 5.38448 9.6822 5.49021 9.68225 5.59839V6.37258C9.68213 6.51762 9.62474 6.65674 9.52257 6.75968L9.06773 7.21452Z" fill="white"/>
<path d="M9.06773 7.21449L9.52257 6.75965C9.62474 6.65671 9.68212 6.51759 9.68225 6.37256V5.59836C9.6822 5.49019 9.6501 5.38445 9.58999 5.29451C9.52988 5.20458 9.44447 5.13447 9.34454 5.09305C9.24461 5.05162 9.13465 5.04075 9.02854 5.06179C8.92243 5.08283 8.82494 5.13485 8.74837 5.21127L7.51934 6.4403C7.44292 6.51686 7.39091 6.61435 7.36986 6.72046C7.34882 6.82657 7.3597 6.93653 7.40112 7.03646C7.44254 7.13639 7.51265 7.22181 7.60259 7.28191C7.69253 7.34202 7.79826 7.37412 7.90644 7.37417H8.68063C8.82567 7.37405 8.96479 7.31666 9.06773 7.21449ZM20.2635 16.4119L20.2597 16.408L19.4226 15.5709C19.1327 15.2804 18.7394 15.1168 18.329 15.1161H17.4435L15.3532 13.3209C14.9537 12.9804 14.4459 12.7934 13.921 12.7935H12.4113C12.0125 12.7953 11.6216 12.9039 11.279 13.108L9.20321 14.3516C8.8771 14.5469 8.60718 14.8234 8.41977 15.1542C8.23236 15.4849 8.13385 15.8585 8.13386 16.2387V17.3951C8.13356 17.737 8.213 18.0742 8.36588 18.3799C8.51876 18.6857 8.74085 18.9515 9.0145 19.1564L10.0887 19.9645C10.5097 20.279 11.279 20.5354 11.8016 20.5354H12.779C12.9843 20.5354 13.1813 20.617 13.3265 20.7622C13.4716 20.9074 13.5532 21.1043 13.5532 21.3096V23.9003C16.5872 23.5064 19.3554 21.9666 21.2903 19.5967V18.6469C21.2903 17.788 20.9032 16.9867 20.2635 16.4119ZM15.3687 0.47998L11.3806 3.38707C11.3327 3.42326 11.2938 3.47004 11.2669 3.52376C11.2401 3.57749 11.226 3.63669 11.2258 3.69675V4.66449C11.2258 4.76716 11.2666 4.86562 11.3392 4.93821C11.4118 5.01081 11.5102 5.05159 11.6129 5.05159H12.3871C12.4897 5.05159 12.5882 5.01081 12.6608 4.93821C12.7334 4.86562 12.7742 4.76716 12.7742 4.66449V4.2774L13.5484 3.5032H14.55C14.6582 3.50325 14.7639 3.53535 14.8538 3.59546C14.9438 3.65557 15.0139 3.74098 15.0553 3.84091C15.0967 3.94084 15.1076 4.0508 15.0866 4.15691C15.0655 4.26302 15.0135 4.36051 14.9371 4.43707L13.6403 5.73385C13.58 5.79276 13.5072 5.8374 13.4274 5.86449L11.4919 6.50804C11.4145 6.53351 11.3471 6.58277 11.2993 6.64881C11.2515 6.71484 11.2258 6.79427 11.2258 6.87578C11.2263 7.19302 11.101 7.49753 10.8774 7.72256L9.90482 8.69513C9.75955 8.84005 9.67776 9.03671 9.67741 9.24191V10.4661C9.67741 10.6714 9.75897 10.8683 9.90416 11.0135C10.0494 11.1587 10.2463 11.2403 10.4516 11.2403H11.521C11.6645 11.2407 11.8053 11.2011 11.9275 11.1259C12.0498 11.0507 12.1486 10.9428 12.2129 10.8145L12.6677 9.90965C12.7008 9.84572 12.7508 9.79207 12.8122 9.75453C12.8736 9.717 12.9441 9.69701 13.0161 9.69675H13.1661C13.2688 9.69675 13.3672 9.73753 13.4398 9.81012C13.5124 9.88272 13.5532 9.98118 13.5532 10.0838C13.5532 10.1865 13.594 10.285 13.6666 10.3576C13.7392 10.4302 13.8376 10.4709 13.9403 10.4709H14.7145C14.8172 10.4709 14.9156 10.4302 14.9882 10.3576C15.0608 10.285 15.1016 10.1865 15.1016 10.0838V9.97739C15.1016 9.89588 15.1273 9.81645 15.1751 9.75042C15.2229 9.68438 15.2903 9.63512 15.3677 9.60965L16.8968 9.10159C17.0507 9.04981 17.1845 8.95093 17.2791 8.81894C17.3738 8.68695 17.4245 8.52853 17.4242 8.3661V8.14836C17.4242 7.94303 17.5057 7.74611 17.6509 7.60092C17.7961 7.45573 17.993 7.37417 18.1984 7.37417H19.9742C20.119 7.3748 20.2577 7.43262 20.3601 7.53502C20.4625 7.63742 20.5203 7.77612 20.5209 7.92094V8.37578C20.5203 8.5206 20.4625 8.6593 20.3601 8.7617C20.2577 8.86411 20.119 8.92192 19.9742 8.92255H18.4258C18.2808 8.92268 18.1416 8.98006 18.0387 9.08223L17.5839 9.53707C17.5074 9.61363 17.4554 9.71112 17.4344 9.81723C17.4133 9.92334 17.4242 10.0333 17.4656 10.1332C17.5071 10.2332 17.5772 10.3186 17.6671 10.3787C17.757 10.4388 17.8628 10.4709 17.9709 10.4709H18.7451C18.8902 10.4711 19.0293 10.5284 19.1322 10.6306L19.5871 11.0855C19.6892 11.1884 19.7466 11.3275 19.7468 11.4726V11.8935L19.1419 12.4984C19.0354 12.6056 18.9752 12.7503 18.9743 12.9014C18.9734 13.0525 19.0319 13.1979 19.1371 13.3064L20.6855 14.8838C20.7571 14.9577 20.8428 15.0163 20.9376 15.0562C21.0324 15.0961 21.1342 15.1165 21.2371 15.1161H23.5906C23.8629 14.0998 24.0006 13.0521 24 12C24 6.54094 20.3569 1.93546 15.3687 0.47998Z" fill="white"/>
</svg>
