<svg width="13" height="12" viewBox="0 0 13 12" fill="none" xmlns="http://www.w3.org/2000/svg">
<path opacity="0.2" d="M6.5 0C3.18548 0 0.5 2.68742 0.5 6C0.5 9.31258 3.18548 12 6.5 12C9.81452 12 12.5 9.31452 12.5 6C12.5 2.68548 9.81452 0 6.5 0ZM6.5 2.66129C6.70097 2.66129 6.89743 2.72089 7.06453 2.83254C7.23163 2.94419 7.36187 3.10289 7.43878 3.28856C7.51569 3.47424 7.53581 3.67855 7.4966 3.87566C7.4574 4.07277 7.36062 4.25382 7.21851 4.39593C7.0764 4.53804 6.89535 4.63482 6.69824 4.67402C6.50113 4.71323 6.29682 4.69311 6.11114 4.6162C5.92547 4.53929 5.76677 4.40905 5.65512 4.24195C5.54347 4.07485 5.48387 3.87839 5.48387 3.67742C5.48387 3.40793 5.59093 3.14947 5.78149 2.95891C5.97205 2.76835 6.23051 2.66129 6.5 2.66129ZM7.85484 8.80645C7.85484 8.88345 7.82425 8.95729 7.7698 9.01174C7.71536 9.06619 7.64151 9.09677 7.56452 9.09677H5.43548C5.35849 9.09677 5.28464 9.06619 5.23019 9.01174C5.17575 8.95729 5.14516 8.88345 5.14516 8.80645V8.22581C5.14516 8.14881 5.17575 8.07496 5.23019 8.02052C5.28464 7.96607 5.35849 7.93548 5.43548 7.93548H5.72581V6.3871H5.43548C5.35849 6.3871 5.28464 6.35651 5.23019 6.30206C5.17575 6.24762 5.14516 6.17377 5.14516 6.09677V5.51613C5.14516 5.43913 5.17575 5.36529 5.23019 5.31084C5.28464 5.25639 5.35849 5.22581 5.43548 5.22581H6.98387C7.06087 5.22581 7.13471 5.25639 7.18916 5.31084C7.24361 5.36529 7.27419 5.43913 7.27419 5.51613V7.93548H7.56452C7.64151 7.93548 7.71536 7.96607 7.7698 8.02052C7.82425 8.07496 7.85484 8.14881 7.85484 8.22581V8.80645Z" fill="black"/>
<path d="M6.49937 4.69388C6.70034 4.69388 6.8968 4.63428 7.0639 4.52263C7.231 4.41098 7.36124 4.25228 7.43815 4.06661C7.51506 3.88093 7.53518 3.67662 7.49598 3.47951C7.45677 3.2824 7.35999 3.10135 7.21788 2.95924C7.07577 2.81713 6.89472 2.72035 6.69761 2.68115C6.5005 2.64194 6.29619 2.66206 6.11051 2.73897C5.92484 2.81588 5.76614 2.94612 5.65449 3.11322C5.54284 3.28032 5.48324 3.47678 5.48324 3.67775C5.48324 3.94724 5.5903 4.2057 5.78086 4.39626C5.97142 4.58682 6.22988 4.69388 6.49937 4.69388ZM7.56389 7.93582H7.27356V5.51646C7.27356 5.43946 7.24298 5.36562 7.18853 5.31117C7.13408 5.25673 7.06024 5.22614 6.98324 5.22614H5.43485C5.35786 5.22614 5.28401 5.25673 5.22956 5.31117C5.17512 5.36562 5.14453 5.43946 5.14453 5.51646V6.09711C5.14453 6.1741 5.17512 6.24795 5.22956 6.30239C5.28401 6.35684 5.35786 6.38743 5.43485 6.38743H5.72518V7.93582H5.43485C5.35786 7.93582 5.28401 7.9664 5.22956 8.02085C5.17512 8.07529 5.14453 8.14914 5.14453 8.22614V8.80678C5.14453 8.88378 5.17512 8.95763 5.22956 9.01207C5.28401 9.06652 5.35786 9.09711 5.43485 9.09711H7.56389C7.64088 9.09711 7.71473 9.06652 7.76918 9.01207C7.82362 8.95763 7.85421 8.88378 7.85421 8.80678V8.22614C7.85421 8.14914 7.82362 8.07529 7.76918 8.02085C7.71473 7.9664 7.64088 7.93582 7.56389 7.93582Z" fill="black"/>
</svg>
