<svg width="295" height="70" viewBox="0 0 295 70" fill="none" xmlns="http://www.w3.org/2000/svg">
<path d="M101.644 0.0348816C96.8629 0.529884 92.7117 1.93614 89.1567 4.25365C82.6654 8.47242 78.6604 14.8175 77.4341 22.805C77.1866 24.4137 77.1528 28.9588 77.3778 30.5113C78.0303 35.0338 79.3579 38.6451 81.6641 42.1213C85.6241 48.0839 91.8679 52.0889 99.2254 53.3601C101.217 53.7089 104.535 53.8439 106.257 53.6414C110.599 53.1464 114.604 51.5601 117.271 49.2989L118.036 48.6464L118.002 50.6826L117.957 52.7301H123.323H128.701V38.0488V23.3675H116.607H104.513V28.43V33.4925L111.274 33.515L118.024 33.5488L117.507 34.5838C115.651 38.3076 112.366 40.5913 107.832 41.3226C106.178 41.5813 103.399 41.5813 101.869 41.3226C97.1779 40.5013 93.6342 37.8801 91.6879 33.7963C90.5742 31.4675 90.1579 29.2738 90.2592 26.2363C90.4054 21.77 91.8117 18.4175 94.6354 15.7737C97.1892 13.3774 100.609 12.2187 104.569 12.3762C108.225 12.5224 111.893 14.0862 114.244 16.4937C114.548 16.8087 114.863 17.0675 114.931 17.0675C115.043 17.0675 126.552 14.0637 127.272 13.8499C127.373 13.8162 127.463 13.7374 127.463 13.6812C127.463 13.6249 127.171 13.1074 126.822 12.5449C122.682 5.85116 115.898 1.41864 107.989 0.237381C106.864 0.0686302 102.612 -0.0663719 101.644 0.0348816Z" fill="white"/>
<path d="M0 26.855V52.7301H12.0713C19.3838 52.7301 24.6376 52.6851 25.4251 52.6176C30.8139 52.1339 35.7302 50.3001 39.7802 47.2626C40.9052 46.4189 43.0202 44.3713 43.909 43.2801C47.5202 38.8026 49.3877 33.2788 49.3877 27.08C49.3877 21.1175 47.6552 15.7175 44.314 11.2624C43.369 9.99119 41.1639 7.72993 39.9827 6.79618C35.8202 3.53366 30.7126 1.5649 25.1664 1.10365C24.2551 1.0249 19.3613 0.9799 11.8576 0.9799H0V26.855ZM21.6001 8.65244C23.2426 9.14744 24.3001 10.3737 24.3001 11.7799C24.3001 12.8037 23.6139 13.9287 22.6801 14.4237C22.2751 14.6487 22.2189 14.7725 22.3426 15.2337L22.4101 15.4925H27.4051H32.4002L32.4227 20.9712L32.4564 26.45L32.9852 25.55C33.9639 23.8625 35.1789 23.2213 36.6302 23.6488C37.1702 23.795 37.4177 23.9525 37.9239 24.4813C38.8239 25.4038 39.0827 26.1125 39.0939 27.6425C39.0939 28.7 39.0602 28.8913 38.7789 29.4988C38.0027 31.1638 36.5514 31.9625 35.0777 31.535C34.2564 31.2988 33.5927 30.7025 32.9627 29.6225L32.4564 28.7675L32.4227 34.2238L32.4002 39.6801H26.8764C23.5576 39.6801 21.3864 39.7251 21.4201 39.7813C21.4651 39.8376 21.8251 40.0738 22.2301 40.2988C23.0514 40.7601 23.7264 41.3788 24.0414 41.9526C24.3226 42.4813 24.3226 43.8651 24.0301 44.4276C23.5351 45.4401 22.3426 46.2276 20.9926 46.4639C19.1476 46.7789 17.0888 45.8339 16.4138 44.3713C16.0988 43.6626 16.1326 42.6838 16.4926 41.9526C16.8301 41.2663 17.2576 40.8726 18.3601 40.2201L19.1813 39.7363L13.6463 39.7026L8.10004 39.6801V35.4501V31.22L8.51629 31.58C9.42754 32.3788 10.8001 32.6713 11.9476 32.3113C14.8276 31.4113 15.9526 27.3163 14.0963 24.5263C13.3088 23.3338 12.2401 22.7487 10.8563 22.7487C10.1025 22.7487 9.8663 22.805 9.38254 23.0525C9.06754 23.2213 8.65129 23.4913 8.44879 23.6488L8.10004 23.9525V19.7225V15.4925H13.0951H18.0901L18.1576 15.2337C18.2701 14.795 18.2251 14.6262 17.9551 14.5025C17.4488 14.2775 16.7288 13.535 16.4701 12.9612C15.9638 11.8812 16.1551 10.7449 17.0101 9.81119C18.0788 8.64119 19.9688 8.15743 21.6001 8.65244Z" fill="white"/>
<path d="M57.0378 26.855V52.7301H63.2815H69.5253V26.855V0.9799H63.2815H57.0378V26.855Z" fill="white"/>
<path d="M138.713 26.855V52.7301H144.957H151.201L151.223 37.4526L151.257 22.1862L156.533 29.555C159.447 33.605 164.42 40.4788 167.615 44.8214L173.408 52.7301H179.292H185.176V26.855V0.9799H178.921H172.666L172.711 16.1112C172.733 27.2713 172.711 31.1975 172.621 31.0963C172.553 31.0288 170.607 28.3288 168.301 25.1113C163.385 18.2712 163.846 18.9012 156.342 8.82119L150.503 0.9799H144.608H138.713V26.855Z" fill="white"/>
<path d="M199.722 26.6638C194.075 40.7826 189.428 52.4264 189.383 52.5276C189.316 52.7189 189.687 52.7301 196.055 52.7301H202.805L204.256 48.7026L205.718 44.6863L215.9 44.6526L226.07 44.6301L227.532 48.6801L228.995 52.7301H235.722C240.121 52.7301 242.439 52.6964 242.439 52.6176C242.439 52.5614 237.804 40.9176 232.134 26.7425L221.829 0.9799H215.9H209.982L199.722 26.6638ZM217.171 20.105C217.643 21.5562 218.926 25.2013 220.028 28.205L222.042 33.6613L215.967 33.695C212.626 33.7063 209.87 33.695 209.836 33.6726C209.813 33.6388 210.668 31.2538 211.726 28.3513C213.863 22.5575 214.246 21.455 215.168 18.4737C215.517 17.36 215.832 16.4037 215.866 16.3362C215.9 16.28 216.012 16.5162 216.125 16.8425C216.237 17.18 216.698 18.6537 217.171 20.105Z" fill="white"/>
<path d="M79.7966 58.3214L79.5379 58.3664V62.9789V67.5802H80.3816H81.2254V62.9789V58.3777L80.8766 58.3102C80.5054 58.2427 80.2129 58.2427 79.7966 58.3214Z" fill="white"/>
<path d="M154.294 58.4002C153.574 58.7264 153.226 59.4239 153.226 60.5714V61.1564L152.753 61.1902C152.269 61.2239 152.269 61.2239 152.236 61.6964L152.202 62.1802H152.708H153.226V64.8802V67.5802H153.844H154.463V64.8802V62.1802H155.183C155.813 62.1802 155.903 62.1577 155.959 61.9439C155.993 61.8089 155.982 61.5839 155.926 61.4377C155.824 61.1902 155.757 61.1677 155.127 61.1677H154.441L154.486 60.4477C154.553 59.3114 154.924 59.0752 156.016 59.4239C156.252 59.5027 156.263 59.4802 156.263 58.9852C156.263 58.5239 156.229 58.4452 155.971 58.3552C155.566 58.1976 154.699 58.2201 154.294 58.4002Z" fill="white"/>
<path d="M211.872 58.3214C211.76 58.3664 211.726 59.4014 211.726 62.9789V67.5802H212.288H212.84L212.873 65.9489L212.907 64.3177L214.145 65.9489L215.382 67.5689L216.035 67.5802C216.575 67.5802 216.676 67.5464 216.676 67.3777C216.676 67.2764 216.114 66.4664 215.427 65.5777L214.178 63.9689L215.326 62.7877C216.642 61.4377 216.699 61.2464 215.821 61.1902L215.236 61.1564L214.077 62.4389L212.907 63.7102L212.873 61.0664C212.851 59.1202 212.806 58.4002 212.705 58.3326C212.558 58.2426 212.086 58.2314 211.872 58.3214Z" fill="white"/>
<path d="M254.139 60.0989V61.8427L253.677 61.5164C253.126 61.1114 252.406 60.9877 251.686 61.1677C250.494 61.4602 249.875 62.4164 249.774 64.0927C249.65 66.3877 250.505 67.6927 252.159 67.6927C252.89 67.6927 253.362 67.5239 253.891 67.0852L254.251 66.7702V67.1864V67.5914L254.791 67.5577L255.32 67.5239V62.9677V58.4114L254.735 58.3777L254.139 58.3439V60.0989ZM253.047 62.3039C253.182 62.3714 253.486 62.6077 253.722 62.8327L254.139 63.2377V64.3852V65.5214L253.587 66.0389C252.991 66.6014 252.62 66.7477 252.147 66.6239C251.675 66.5114 251.337 66.1402 251.157 65.5102C250.674 63.8789 251.304 62.1802 252.395 62.1802C252.62 62.1802 252.912 62.2364 253.047 62.3039Z" fill="white"/>
<path d="M8.66254 58.5914C8.29129 58.7377 8.21254 58.8839 8.21254 59.4464C8.21254 60.1777 8.51629 60.4252 9.31504 60.3577C10.0463 60.2902 10.2375 60.0989 10.2375 59.4352C10.2375 58.8727 10.1588 58.7377 9.7538 58.5914C9.37129 58.4451 9.03379 58.4451 8.66254 58.5914Z" fill="white"/>
<path d="M34.4589 58.5802C34.1439 58.7152 33.9752 59.0302 33.9752 59.5027C33.9752 60.1439 34.1889 60.3239 34.9877 60.3239C35.5389 60.3239 35.7077 60.2789 35.8427 60.1102C36.0339 59.8402 36.0452 59.0302 35.8652 58.7714C35.6964 58.5464 34.8189 58.4227 34.4589 58.5802Z" fill="white"/>
<path d="M53.404 58.6252C51.6152 59.0077 51.019 60.6502 52.099 62.2589L52.414 62.7314L51.919 63.1027C51.1652 63.6877 50.7377 64.4414 50.7377 65.2177C50.7377 66.2414 51.4915 67.2089 52.5265 67.5127C53.7302 67.8727 55.6203 67.6814 56.5428 67.1189L56.8915 66.9052L57.5553 67.2989C58.0165 67.5802 58.3428 67.6927 58.6803 67.6927C59.2765 67.6927 59.4228 67.5127 59.3778 66.8377C59.344 66.3427 59.3103 66.2864 59.0065 66.2077C58.8265 66.1627 58.5453 66.0164 58.399 65.9039L58.129 65.6902L58.3878 65.0939C58.579 64.6439 58.6578 64.2727 58.6578 63.6427L58.669 62.7989L58.0165 62.7652C57.229 62.7202 57.0378 62.8439 57.0378 63.4177C57.0378 63.8564 56.8465 64.5427 56.7115 64.5427C56.6778 64.5427 56.2953 64.1939 55.8678 63.7664L55.0915 62.9902L55.4628 62.7989C55.9465 62.5514 56.7903 61.7639 56.9928 61.3814C57.0828 61.2014 57.1503 60.7739 57.1503 60.4252C57.1503 59.3339 56.6553 58.8277 55.339 58.5802C54.6077 58.4452 54.2252 58.4452 53.404 58.6252ZM55.069 60.2114C55.2265 60.3577 55.3503 60.5602 55.3503 60.6502C55.3503 60.8752 54.7878 61.5164 54.3715 61.7527L54.0452 61.9439L53.7415 61.4714C53.1902 60.6277 53.4602 59.9302 54.3377 59.9302C54.6753 59.9302 54.8665 60.0089 55.069 60.2114ZM54.484 64.9364L55.474 65.8814L55.1028 66.0727C54.6303 66.3202 53.6515 66.3202 53.2802 66.0727C52.8752 65.8139 52.6165 65.2739 52.7065 64.8802C52.7852 64.4977 53.1677 63.9802 53.359 63.9802C53.4377 63.9914 53.944 64.4189 54.484 64.9364Z" fill="white"/>
<path d="M95.4004 58.5914C95.0292 58.7377 94.9504 58.8839 94.9504 59.4352C94.9504 60.1552 95.1417 60.3239 95.9629 60.3239C96.5142 60.3239 96.6829 60.2789 96.8179 60.1102C97.0092 59.8402 97.0204 59.0302 96.8404 58.7714C96.6604 58.5352 95.7829 58.4227 95.4004 58.5914Z" fill="white"/>
<path d="M217.778 58.8173C217.632 58.896 217.576 59.0758 217.576 59.4244C217.576 59.9865 217.756 60.1552 218.352 60.1552C218.79 60.1552 219.038 59.8966 219.038 59.4244C219.038 59.222 218.959 58.9634 218.858 58.8735C218.667 58.6711 218.071 58.6374 217.778 58.8173Z" fill="white"/>
<path d="M117.889 59.0639C116.641 59.4914 115.909 60.2002 115.414 61.4939C115.043 62.4164 115.054 64.3177 115.426 65.2739C115.819 66.2864 116.731 67.1527 117.721 67.4565C119.048 67.8615 121.433 67.7152 122.266 67.1752C122.502 67.0177 122.513 66.9614 122.513 64.9477C122.513 63.3277 122.479 62.8552 122.356 62.7539C122.254 62.6639 121.669 62.6302 120.533 62.6527L118.857 62.6864L118.823 63.2264C118.778 63.9914 118.891 64.0927 119.892 64.0927H120.724L120.691 65.0152L120.657 65.9489L120.139 66.0727C119.487 66.2414 118.677 66.1064 118.126 65.7352C116.888 64.9139 116.641 62.4952 117.687 61.2464C118.519 60.2452 119.993 60.0652 121.523 60.7852C122.344 61.1789 122.513 61.1114 122.513 60.3914C122.513 59.6602 122.446 59.5027 122.018 59.2889C120.961 58.7377 119.127 58.6477 117.889 59.0639Z" fill="white"/>
<path d="M0.180001 59.0977C0.0225001 59.2439 0 59.7839 0 63.2039C0 65.7014 0.0450002 67.2202 0.112501 67.3664C0.225001 67.5577 0.371252 67.5802 1.91251 67.5802C4.38752 67.5802 5.36627 67.2989 6.23253 66.3427C7.02003 65.4764 7.14378 65.0377 7.14378 63.2489C7.14378 61.7864 7.12128 61.6289 6.85128 61.0552C6.32253 59.9527 5.41127 59.2777 4.10627 59.0414C3.74627 58.9739 2.74501 58.9177 1.90126 58.9177C0.641253 58.9177 0.315001 58.9514 0.180001 59.0977ZM3.51002 60.5039C3.96002 60.6052 4.21877 60.7402 4.56752 61.1002C5.16377 61.6852 5.32127 62.2589 5.26502 63.5302C5.18627 65.2627 4.47752 65.9939 2.80126 66.0952L1.91251 66.1514V63.2602V60.3802H2.41876C2.68876 60.3802 3.18376 60.4364 3.51002 60.5039Z" fill="white"/>
<path d="M63.5853 59.0077C63.484 59.0864 63.4503 60.0202 63.4728 63.3164L63.5065 67.5239H64.4065H65.3065L65.3403 63.3164C65.3628 60.0202 65.329 59.0864 65.2278 59.0077C65.149 58.9627 64.7778 58.9177 64.4065 58.9177C64.0353 58.9177 63.664 58.9627 63.5853 59.0077Z" fill="white"/>
<path d="M171.473 59.0527C171.372 59.1539 171.338 60.2677 171.338 63.3952V67.5914L171.935 67.5577L172.52 67.5239L172.576 64.0927C172.61 62.2027 172.643 60.7177 172.666 60.7852C172.722 61.0552 175.985 67.0852 176.21 67.3214C176.39 67.5239 176.558 67.5802 177.031 67.5802C177.38 67.5802 177.661 67.5239 177.74 67.4227C177.83 67.3214 177.863 66.0952 177.841 63.1252L177.807 58.9739H177.245H176.682L176.626 62.2589L176.57 65.5439L174.893 62.3939C173.971 60.6614 173.116 59.1652 172.981 59.0752C172.7 58.8839 171.665 58.8614 171.473 59.0527Z" fill="white"/>
<path d="M262.182 59.0527C260.394 63.9577 259.212 67.4114 259.291 67.4902C259.347 67.5464 259.64 67.5802 259.932 67.5577L260.472 67.5239L260.832 66.4552L261.192 65.3864L262.925 65.3527L264.657 65.3302L265.051 66.4552L265.434 67.5802H266.086C266.536 67.5802 266.739 67.5352 266.739 67.4339C266.739 67.3664 266.064 65.4202 265.231 63.1364L263.724 58.9739L262.981 58.9402C262.452 58.9177 262.216 58.9514 262.182 59.0527ZM263.622 62.3264C263.971 63.3389 264.264 64.1939 264.264 64.2389C264.264 64.2839 263.656 64.3177 262.902 64.3177C261.856 64.3177 261.552 64.2839 261.586 64.1714C261.62 64.1039 261.912 63.2377 262.25 62.2702C262.587 61.2914 262.88 60.4927 262.914 60.4927C262.947 60.4927 263.262 61.3139 263.622 62.3264Z" fill="white"/>
<path d="M37.6539 59.6602C37.6089 59.7052 37.5752 60.0652 37.5752 60.4589V61.1677H37.1252H36.6639L36.6977 61.8652L36.7314 62.5739L37.1477 62.6077L37.5527 62.6414L37.5977 64.5764C37.6314 66.7589 37.7439 67.1302 38.4752 67.4902C38.9027 67.7152 40.0727 67.7602 40.5339 67.5914C40.8377 67.4677 40.9839 66.9952 40.8714 66.4439C40.8039 66.1064 40.8039 66.1064 40.2752 66.1739C39.4539 66.2864 39.3752 66.1064 39.3752 64.1827V62.6414L40.0727 62.6077C40.7252 62.5739 40.7702 62.5514 40.8489 62.2589C40.8939 62.0902 40.9052 61.7639 40.8714 61.5502L40.8039 61.1677H40.0952H39.3864L39.3527 60.4027L39.3189 59.6489L38.5314 59.6152C38.0927 59.6039 37.6989 59.6152 37.6539 59.6602Z" fill="white"/>
<path d="M186.605 59.6602C186.56 59.7052 186.526 60.0652 186.526 60.4477V61.1564L186.053 61.1902C185.57 61.2239 185.57 61.2239 185.536 61.6964L185.502 62.1802H186.008H186.503L186.548 64.3964C186.582 66.8827 186.672 67.1864 187.381 67.5239C187.786 67.7152 188.731 67.7489 189.158 67.5802C189.417 67.4902 189.451 67.4114 189.451 66.9502C189.451 66.4664 189.44 66.4327 189.203 66.5002C188.45 66.7139 188.348 66.7027 188.056 66.4214C187.763 66.1289 187.763 66.1177 187.763 64.1489V62.1802H188.618H189.462L189.428 61.6964L189.395 61.2239L188.585 61.1902L187.775 61.1564L187.741 60.4027L187.707 59.6489L187.201 59.6152C186.92 59.5927 186.65 59.6152 186.605 59.6602Z" fill="white"/>
<path d="M273.601 60.3802V61.1677H273.095C272.656 61.1677 272.589 61.2014 272.521 61.4377C272.386 61.9777 272.499 62.1239 273.072 62.1577L273.601 62.1914V64.3289C273.601 66.7252 273.68 67.0852 274.299 67.4677C274.558 67.6252 274.861 67.6927 275.289 67.6927C276.121 67.6927 276.459 67.5127 276.504 67.0289C276.56 66.5114 276.425 66.4102 275.885 66.5677C274.918 66.8602 274.726 66.4102 274.726 63.8902V62.1802H276.245H277.764V64.8802V67.5802H278.326H278.889L278.866 64.3964L278.833 61.2239L276.785 61.1902L274.726 61.1677V60.3802V59.5927H274.164H273.601V60.3802Z" fill="white"/>
<path d="M19.5751 61.0664C18.2026 61.3364 17.3251 62.6414 17.3251 64.3852C17.3251 66.0164 17.7976 66.9502 18.8551 67.4339C19.4288 67.6927 19.5863 67.7152 20.7338 67.6702C21.7013 67.6364 22.0951 67.5802 22.4438 67.4114C22.8601 67.1977 22.8938 67.1527 22.9276 66.6464C22.9726 65.9827 22.8376 65.9152 21.9488 66.1627C21.1501 66.3877 20.2276 66.3989 19.8113 66.1739C19.4963 66.0164 19.1251 65.4089 19.1251 65.0602C19.1251 64.9027 19.3501 64.8802 20.9363 64.8802C21.9601 64.8802 22.8376 64.8352 22.9613 64.7677C23.1414 64.6664 23.1751 64.5202 23.1751 63.8902C23.1751 63.4739 23.1189 62.9452 23.0514 62.7089C22.9051 62.1914 22.3763 61.5614 21.8363 61.2914C21.3413 61.0327 20.2501 60.9202 19.5751 61.0664ZM20.9476 62.4164C21.0713 62.4839 21.2401 62.7089 21.3301 62.9114C21.6226 63.6314 21.6113 63.6427 20.3063 63.6427C19.5638 63.6427 19.1251 63.5977 19.1251 63.5302C19.1251 63.2602 19.4626 62.6414 19.6988 62.4727C20.0026 62.2702 20.6101 62.2364 20.9476 62.4164Z" fill="white"/>
<path d="M26.8314 61.1002C26.6514 61.1789 26.3701 61.3927 26.2126 61.5614L25.9314 61.8652L25.8751 61.5502C25.8076 61.1564 25.2789 60.9652 24.7276 61.1227L24.3564 61.2352V64.3739V67.5239H25.2001H26.0439L26.1001 65.5327L26.1564 63.5414L26.4939 63.1927C26.9776 62.6864 27.1689 62.6077 27.6076 62.7314C27.8664 62.7989 28.0351 62.7877 28.1139 62.7089C28.2601 62.5627 28.2826 61.2127 28.1476 61.1227C27.8889 60.9652 27.1464 60.9539 26.8314 61.1002Z" fill="white"/>
<path d="M30.1277 61.0889C29.0364 61.4039 28.5752 61.9552 28.5752 62.9789C28.5752 63.9239 28.8452 64.2614 30.1389 64.8914C31.3539 65.4877 31.5789 65.7577 31.1739 66.1514C30.8477 66.4777 30.0489 66.4777 29.3964 66.1402C29.1377 66.0052 28.8452 65.8927 28.7552 65.8927C28.5302 65.8927 28.4177 66.3427 28.5077 66.8602C28.6202 67.4339 29.2164 67.6814 30.4989 67.6927C31.2977 67.6927 31.5452 67.6477 32.0177 67.4114C32.7489 67.0514 33.0752 66.5002 33.0752 65.6564C33.0752 64.6439 32.6364 64.1489 31.2752 63.6314C30.5327 63.3502 30.2627 63.1252 30.2627 62.7877C30.2627 62.2702 31.0052 62.1464 31.9614 62.5177C32.2877 62.6302 32.5914 62.7089 32.6477 62.6752C32.6927 62.6414 32.7377 62.3489 32.7377 62.0114C32.7377 61.4264 32.7377 61.4152 32.2877 61.2352C31.6464 60.9764 30.7464 60.9202 30.1277 61.0889Z" fill="white"/>
<path d="M69.6603 61.1114C69.4016 61.1902 69.0078 61.3927 68.7941 61.5502L68.4116 61.8427L68.3778 61.5389C68.3328 61.1564 67.8041 60.9652 67.2528 61.1227L66.8816 61.2352V64.3739V67.5239H67.7253H68.5691L68.6028 65.5102C68.6366 63.2489 68.6928 63.0577 69.4803 62.6864C69.9641 62.4614 70.3016 62.5627 70.6166 63.0352C70.7853 63.2939 70.8191 63.6764 70.8528 65.4652L70.8978 67.5914L71.7078 67.5577L72.5066 67.5239L72.5403 65.2177C72.5628 63.6652 72.5291 62.7539 72.4391 62.4164C72.2591 61.7752 71.7078 61.2352 71.0666 61.0664C70.4366 60.9089 70.2678 60.9202 69.6603 61.1114Z" fill="white"/>
<path d="M76.0391 61.0552C74.4416 61.3252 73.6766 62.3827 73.6541 64.3739C73.6316 66.0839 74.2278 67.2202 75.3303 67.5577C75.9716 67.749 77.2091 67.7265 77.7041 67.524C78.4129 67.2315 78.5254 67.0627 78.5254 66.3202C78.5254 65.5214 78.3904 65.4314 77.7941 65.8364C77.2429 66.2077 76.9054 66.2864 76.4103 66.1627C75.8028 66.0052 75.5553 65.5777 75.5103 64.5989C75.4878 64.1489 75.5216 63.5977 75.5891 63.3839C75.8928 62.4614 76.7141 62.2252 77.6816 62.7877C78.0979 63.0352 78.2329 63.0689 78.3679 62.9677C78.5479 62.8102 78.5816 61.9327 78.4129 61.6177C78.1991 61.2127 76.9279 60.9089 76.0391 61.0552Z" fill="white"/>
<path d="M91.2267 61.0439C90.1579 61.2689 89.5504 61.9664 89.5504 62.9677C89.5504 63.9239 89.8204 64.2614 91.1142 64.8914C92.2954 65.4652 92.5317 65.7352 92.1942 66.1177C91.8004 66.5564 91.3392 66.5227 90.0229 65.9939C89.7079 65.8589 89.6404 65.8589 89.5504 66.0052C89.4042 66.2302 89.4042 66.8602 89.5504 67.1189C89.7304 67.4677 90.4842 67.6927 91.4742 67.6927C93.1617 67.6927 94.0504 66.9952 94.0504 65.6677C94.0504 64.6777 93.7017 64.2502 92.4867 63.7439C91.4854 63.3389 91.2379 63.1364 91.2379 62.7877C91.2379 62.2702 91.9804 62.1464 92.9367 62.5177C93.2629 62.6302 93.5667 62.7089 93.6229 62.6752C93.6679 62.6414 93.7129 62.3489 93.7129 62.0114C93.7129 61.4264 93.7017 61.4152 93.2854 61.2464C92.7567 61.0327 91.7554 60.9314 91.2267 61.0439Z" fill="white"/>
<path d="M100.407 61.0552C99.3267 61.2802 98.618 61.8427 98.2017 62.7764C97.8642 63.5414 97.8417 65.0939 98.1342 65.9714C98.3817 66.6914 99.113 67.4002 99.8105 67.5802C100.564 67.7939 102.218 67.6702 102.792 67.3777C103.388 67.0739 103.894 66.4439 104.13 65.7464C104.389 64.9477 104.31 63.0802 103.984 62.4614C103.692 61.8989 103.219 61.4489 102.713 61.2464C102.207 61.0327 100.98 60.9314 100.407 61.0552ZM101.948 62.7089C102.522 63.2152 102.679 64.6327 102.263 65.5327C101.723 66.7252 100.08 66.4777 99.833 65.1502C99.7992 64.9364 99.788 64.4302 99.8105 64.0364C99.8555 63.2489 100.092 62.8102 100.587 62.5402C100.935 62.3489 101.655 62.4389 101.948 62.7089Z" fill="white"/>
<path d="M108.349 61.0552C108.147 61.1002 107.753 61.3027 107.483 61.4939L106.988 61.8427V61.5614C106.988 61.1902 106.549 61.0102 105.885 61.1114L105.413 61.1789L105.435 64.3514L105.469 67.5239H106.313H107.157L107.191 65.4427C107.213 63.3727 107.224 63.3727 107.517 63.0577C107.888 62.6639 108.473 62.4614 108.766 62.6189C109.261 62.8889 109.294 63.0239 109.351 65.3189L109.407 67.5239H110.251H111.094V65.1052C111.094 63.7777 111.061 62.5514 111.016 62.3827C110.903 62.0002 110.419 61.4264 110.037 61.2352C109.643 61.0214 108.822 60.9314 108.349 61.0552Z" fill="white"/>
<path d="M126.586 61.0214C126.451 61.0439 126.124 61.2577 125.888 61.4939L125.438 61.9214V61.5614C125.438 61.2352 125.393 61.1902 125.067 61.1227C124.864 61.0889 124.527 61.0889 124.336 61.1227L123.976 61.1902V64.3852V67.5802H124.808C125.461 67.5802 125.652 67.5464 125.708 67.4002C125.742 67.2989 125.776 66.3989 125.776 65.3977V63.5639L126.147 63.1364C126.529 62.6864 126.676 62.6527 127.519 62.7652C127.722 62.7989 127.744 62.7202 127.778 62.0227C127.801 61.5952 127.767 61.2127 127.722 61.1564C127.598 61.0439 126.901 60.9539 126.586 61.0214Z" fill="white"/>
<path d="M130.602 61.0552C129.466 61.2577 128.611 61.9777 128.307 63.0127C128.059 63.8452 128.093 65.2964 128.374 66.0502C128.633 66.7702 129.241 67.3552 129.927 67.5577C130.163 67.6364 130.782 67.6927 131.299 67.6927C132.773 67.6927 133.696 67.1527 134.202 66.0052C134.697 64.8689 134.596 63.1027 133.988 62.1352C133.437 61.2802 131.986 60.8077 130.602 61.0552ZM131.907 62.5852C132.413 62.8214 132.649 63.3502 132.661 64.2952C132.672 65.5889 132.188 66.2864 131.277 66.2864C130.422 66.2864 129.961 65.6227 129.949 64.4077C129.938 63.5752 130.208 62.8889 130.658 62.6189C131.086 62.3602 131.423 62.3489 131.907 62.5852Z" fill="white"/>
<path d="M145.744 61.0439C145.283 61.1564 144.901 61.3702 144.541 61.7077L144.226 62.0002V61.5952C144.226 61.2352 144.192 61.1902 143.866 61.1227C143.674 61.0889 143.337 61.0889 143.134 61.1227L142.763 61.1902L142.786 65.5439L142.819 69.8865H143.607H144.394L144.428 68.4577L144.462 67.0177L144.923 67.3552C145.328 67.6477 145.486 67.6927 146.116 67.6927C147.094 67.6927 147.702 67.4002 148.152 66.7139C148.602 66.0389 148.759 65.2402 148.703 63.9577C148.636 62.2589 148.051 61.3252 146.903 61.0552C146.352 60.9314 146.217 60.9314 145.744 61.0439ZM146.419 62.7877C147.117 63.4852 147.083 65.1952 146.352 65.9264C146.071 66.1964 145.958 66.2414 145.654 66.1852C145.463 66.1402 145.103 65.9264 144.878 65.7014C144.451 65.2852 144.451 65.2739 144.451 64.3739C144.451 63.4852 144.462 63.4514 144.822 63.1139C145.531 62.4502 145.981 62.3489 146.419 62.7877Z" fill="white"/>
<path d="M8.66254 61.1452L8.38129 61.2352V64.3739V67.5239H9.22504H10.0688L10.1025 64.4414C10.1138 62.7427 10.0913 61.3139 10.035 61.2577C9.90004 61.1227 8.98879 61.0552 8.66254 61.1452Z" fill="white"/>
<path d="M11.0476 61.1677C10.7101 61.3139 10.6988 61.2464 11.8576 64.7452L12.7913 67.5239H13.9501H15.1201L16.1213 64.5089C16.6613 62.8439 17.0888 61.4152 17.0551 61.3364C16.9763 61.1227 16.2901 61.0102 15.7838 61.1339L15.3563 61.2352L14.6701 63.4514L13.9838 65.6677L13.3426 63.5414C12.9826 62.3714 12.6451 61.3589 12.6001 61.2914C12.4988 61.1114 11.3738 61.0214 11.0476 61.1677Z" fill="white"/>
<path d="M34.4252 61.1452L34.1439 61.2352V64.3739V67.5239H34.9877H35.8314L35.8652 64.4414C35.8764 62.7427 35.8539 61.3139 35.7977 61.2577C35.6627 61.1227 34.7514 61.0552 34.4252 61.1452Z" fill="white"/>
<path d="M41.4339 61.1677C41.2877 61.2239 41.1752 61.3589 41.1752 61.4602C41.1752 61.5727 41.6814 63.0127 42.3002 64.6777L43.4364 67.7039L43.0877 68.5927C42.5814 69.9315 42.5814 69.9427 43.5714 69.9427C44.0102 69.9427 44.4377 69.8977 44.5165 69.8527C44.6852 69.7515 47.3627 61.8764 47.3627 61.4827C47.3627 61.2239 47.3065 61.1789 46.924 61.1114C46.6877 61.0777 46.3165 61.0777 46.1027 61.1114L45.709 61.1902L45.0677 63.2039C44.719 64.3064 44.4152 65.2177 44.3927 65.2177C44.3702 65.2177 44.0439 64.3064 43.6614 63.2039C42.9077 61.0214 42.9189 61.0552 42.0752 61.0664C41.8614 61.0664 41.5689 61.1114 41.4339 61.1677Z" fill="white"/>
<path d="M82.9354 61.1339L82.6766 61.1902L82.7104 63.7327C82.7441 65.9602 82.7666 66.3427 82.9579 66.7139C83.2841 67.3777 83.7341 67.6252 84.6679 67.6702C85.5004 67.7152 85.8829 67.6027 86.5129 67.1077L86.7941 66.8827L86.8504 67.2089C86.9066 67.5127 86.9291 67.5239 87.6379 67.5239H88.3692V64.3739V61.2352L87.9529 61.1339C87.7054 61.0777 87.3454 61.0777 87.1091 61.1339L86.6816 61.2352L86.6479 63.2489L86.6254 65.2627L86.3104 65.5889C85.6354 66.2977 85.0504 66.3427 84.6341 65.7127C84.4654 65.4539 84.4316 65.0714 84.3979 63.2939L84.3529 61.1902L84.0154 61.1227C83.6554 61.0552 83.3629 61.0552 82.9354 61.1339Z" fill="white"/>
<path d="M95.4005 61.1452L95.1192 61.2352V64.3739V67.5239H95.963H96.8067L96.8405 64.4414C96.8517 62.7427 96.8292 61.3139 96.773 61.2577C96.638 61.1227 95.7267 61.0552 95.4005 61.1452Z" fill="white"/>
<path d="M135.901 61.1452L135.619 61.2352L135.586 63.5189C135.552 66.0277 135.619 66.4889 136.126 67.0627C136.598 67.5914 136.992 67.7264 137.914 67.6702C138.578 67.6364 138.781 67.5689 139.208 67.2764L139.714 66.9164L139.748 67.2202C139.782 67.5127 139.804 67.5239 140.513 67.5239H141.244V64.3739V61.2352L140.828 61.1339C140.581 61.0777 140.221 61.0777 139.984 61.1339L139.557 61.2352L139.501 63.3277C139.433 65.6339 139.422 65.6902 138.657 66.0502C138.218 66.2639 137.824 66.1627 137.543 65.7577C137.397 65.5439 137.363 65.1502 137.363 63.3952C137.363 62.2364 137.318 61.2689 137.262 61.2352C137.071 61.1114 136.193 61.0664 135.901 61.1452Z" fill="white"/>
<path d="M158.502 61.1339C158.333 61.1564 157.928 61.3364 157.602 61.5389C156.769 62.0339 156.364 62.8327 156.286 64.1039C156.151 66.4439 157.141 67.6927 159.121 67.6927C160.111 67.6927 160.651 67.5239 161.213 67.0402C161.787 66.5564 162.068 66.0164 162.226 65.0602C162.462 63.7552 162.08 62.3264 161.326 61.6964C160.718 61.1789 159.604 60.9652 158.502 61.1339ZM160.223 62.3827C161.022 62.8552 161.303 64.6552 160.752 65.7352C160.021 67.1527 158.108 66.9502 157.613 65.4089C157.422 64.8014 157.512 63.5752 157.793 63.0239C158.232 62.1577 159.346 61.8539 160.223 62.3827Z" fill="white"/>
<path d="M165.657 61.2239C165.477 61.3252 165.185 61.5614 165.016 61.7639L164.712 62.1239L164.701 61.6402V61.1677H164.195H163.688V64.3739V67.5802H164.251H164.813V65.5777C164.813 63.4289 164.813 63.4289 165.477 62.6977C165.871 62.2702 166.175 62.1689 166.681 62.3039C166.996 62.3939 167.12 62.3939 167.187 62.2702C167.345 62.0339 167.3 61.4264 167.12 61.2802C166.85 61.0552 166.04 61.0214 165.657 61.2239Z" fill="white"/>
<path d="M181.463 61.1564C180.586 61.4377 180.035 61.9439 179.652 62.7989C179.326 63.5302 179.292 65.0939 179.585 65.9602C179.821 66.6464 180.44 67.2764 181.115 67.5239C181.992 67.8277 184.051 67.6589 184.568 67.2427C184.737 67.0852 184.782 66.6014 184.625 66.3539C184.546 66.2302 184.411 66.2527 183.848 66.4552C182.903 66.8039 181.722 66.7477 181.295 66.3427C180.912 65.9939 180.721 65.6227 180.642 65.0714L180.575 64.6552H182.633C184.073 64.6552 184.726 64.6102 184.816 64.5202C184.996 64.3402 184.985 63.4627 184.782 62.7877C184.602 62.1689 184.152 61.6289 183.612 61.3364C183.196 61.1227 181.891 61.0102 181.463 61.1564ZM182.926 62.2139C183.297 62.4052 183.713 63.0464 183.713 63.4289V63.7552H182.195C180.721 63.7552 180.676 63.7439 180.676 63.5189C180.676 63.1702 181.103 62.4727 181.441 62.2589C181.801 62.0339 182.532 62.0114 182.926 62.2139Z" fill="white"/>
<path d="M201.882 61.1564C201.038 61.3702 200.352 61.9327 199.981 62.7427C199.79 63.1477 199.745 63.4739 199.745 64.4302C199.745 65.1952 199.801 65.7464 199.902 66.0052C200.352 67.1302 201.23 67.6927 202.546 67.6927C203.558 67.6927 204.098 67.5239 204.683 67.0064C205.426 66.3539 205.696 65.6339 205.696 64.3177C205.696 63.0689 205.426 62.2814 204.796 61.7302C204.155 61.1677 202.872 60.9202 201.882 61.1564ZM203.48 62.2814C204.166 62.5964 204.447 63.2039 204.458 64.3739C204.47 65.1277 204.425 65.3527 204.188 65.7689C203.502 66.9839 201.916 66.9839 201.218 65.7802C200.87 65.1952 200.881 63.6652 201.241 62.9902C201.511 62.4727 202.163 62.0677 202.726 62.0677C202.883 62.0677 203.221 62.1689 203.48 62.2814Z" fill="white"/>
<path d="M209.195 61.1564C209.071 61.2127 208.823 61.4152 208.632 61.6177L208.295 61.9777L208.238 61.5952C208.182 61.2352 208.16 61.2239 207.676 61.2239H207.17L207.136 64.4077L207.113 67.5914L207.698 67.5577L208.295 67.5239L208.328 65.4539L208.351 63.3727L208.756 62.8889C209.251 62.2814 209.543 62.1577 210.106 62.3039C210.421 62.3939 210.545 62.3939 210.612 62.2702C210.736 62.0789 210.736 61.4939 210.623 61.3027C210.511 61.1227 209.498 61.0214 209.195 61.1564Z" fill="white"/>
<path d="M222.954 61.2014C222.729 61.2914 222.369 61.5052 222.166 61.6739L221.795 61.9889L221.739 61.6064C221.682 61.2352 221.671 61.2239 221.176 61.2239H220.67V64.3739V67.5239L221.266 67.5577L221.851 67.5914V65.4202V63.2377L222.279 62.8327C222.504 62.6077 222.807 62.3714 222.942 62.3039C223.257 62.1464 223.887 62.1464 224.101 62.3264C224.585 62.7202 224.607 62.8214 224.664 65.2064L224.72 67.5239L225.316 67.5577L225.912 67.5914L225.879 65.0827C225.845 62.7427 225.822 62.5402 225.597 62.1127C225.462 61.8539 225.17 61.5277 224.945 61.3927C224.45 61.0889 223.516 60.9989 222.954 61.2014Z" fill="white"/>
<path d="M228.984 61.1564C228.365 61.3139 227.836 61.7189 227.6 62.2252C227.319 62.7989 227.285 63.7777 227.532 64.2502C227.69 64.5427 227.679 64.5989 227.476 64.9364C227.184 65.4089 227.172 66.2189 227.465 66.5789C227.667 66.8377 227.667 66.8377 227.352 67.2764C227.094 67.6364 227.026 67.8502 227.026 68.3115C227.026 69.2902 227.566 69.7627 228.927 69.954C229.884 70.089 231.076 69.9202 231.717 69.5377C232.91 68.8402 232.966 67.1302 231.819 66.5452C231.47 66.3652 231.042 66.2864 230.064 66.2302C229.355 66.1852 228.68 66.1064 228.579 66.0614C228.32 65.9602 228.241 65.6902 228.387 65.4314C228.477 65.2627 228.556 65.2289 228.747 65.2964C228.882 65.3414 229.377 65.3864 229.839 65.3864C230.806 65.3864 231.357 65.1277 231.74 64.5089C232.066 63.9802 232.156 63.1139 231.942 62.5964L231.762 62.1802H232.201C232.572 62.1802 232.662 62.1352 232.719 61.9102C232.752 61.7639 232.73 61.5277 232.651 61.4039C232.55 61.1902 232.426 61.1677 231.594 61.1677C231.076 61.1677 230.356 61.1452 229.996 61.1114C229.636 61.0889 229.175 61.1114 228.984 61.1564ZM230.525 62.3939C230.986 62.8664 230.986 63.5977 230.525 64.1152C230.232 64.4414 230.131 64.4864 229.681 64.4752C228.826 64.4527 228.354 63.8227 228.545 62.9452C228.747 62.0564 229.872 61.7414 230.525 62.3939ZM231.076 67.4677C231.391 67.6814 231.47 67.9177 231.369 68.334C231.189 69.009 229.254 69.2902 228.522 68.739C228.106 68.4352 228.117 67.9064 228.545 67.4677C228.849 67.1527 228.871 67.1414 229.827 67.2089C230.491 67.2427 230.885 67.3214 231.076 67.4677Z" fill="white"/>
<path d="M238.017 61.1677C237.792 61.2239 237.399 61.3814 237.151 61.5052C236.735 61.7189 236.701 61.7752 236.701 62.1802C236.701 62.7314 236.814 62.7427 237.77 62.3489C239.232 61.7414 240.189 62.1802 240.189 63.4627V63.8452L239.086 63.8902C238.186 63.9239 237.871 63.9802 237.421 64.2164C236.679 64.5877 236.319 65.2514 236.409 66.0614C236.51 67.0177 237.117 67.5914 238.096 67.6702C238.906 67.7377 239.401 67.6364 239.885 67.2989L240.29 67.0289L240.324 67.2764C240.357 67.4902 240.425 67.5239 240.864 67.5239H241.37L241.404 65.6114C241.46 62.5064 241.314 61.8764 240.447 61.3589C240.02 61.1114 238.67 61.0102 238.017 61.1677ZM240.189 65.3077C240.189 65.7689 240.132 65.9039 239.817 66.2077C239.277 66.7252 238.715 66.8602 238.197 66.6014C237.691 66.3539 237.511 65.9264 237.714 65.4427C237.905 64.9814 238.411 64.7677 239.379 64.7677H240.189V65.3077Z" fill="white"/>
<path d="M245.442 61.2127C245.217 61.2914 244.857 61.4939 244.644 61.6627L244.25 61.9552L244.216 61.5952C244.182 61.2352 244.16 61.2239 243.676 61.2239H243.17V64.3739V67.5239L243.766 67.5577L244.351 67.5914V65.4202V63.2377L244.779 62.8327C245.307 62.3264 245.589 62.1802 246.072 62.1802C246.489 62.1802 246.849 62.4839 247.04 63.0014C247.119 63.1814 247.164 64.2164 247.164 65.4539V67.5914L247.76 67.5577L248.345 67.5239V65.1052C248.345 62.7989 248.334 62.6639 248.086 62.1577C247.929 61.8427 247.659 61.5277 247.434 61.3927C246.95 61.0889 246.005 60.9989 245.442 61.2127Z" fill="white"/>
<path d="M269.382 61.1564C268.516 61.3814 268.021 61.8202 267.616 62.6864C267.402 63.1589 267.357 63.4402 267.357 64.4302C267.357 65.7689 267.492 66.2864 268.01 66.8714C268.494 67.4227 269.124 67.6927 269.934 67.6927C270.777 67.6927 271.396 67.5014 271.813 67.1189C272.15 66.8039 272.24 66.3427 272.026 66.0052C271.936 65.8589 271.891 65.8589 271.666 66.0052C271.081 66.3764 270.395 66.6802 270.136 66.6802C269.641 66.6802 269.101 66.3314 268.842 65.8477C268.651 65.4877 268.595 65.1839 268.595 64.4864C268.595 63.4064 268.674 63.0914 269.056 62.6414C269.607 61.9889 270.474 61.9664 271.374 62.5852C271.903 62.9564 272.06 62.8552 272.004 62.1689C271.97 61.7189 271.925 61.6514 271.509 61.4264C271.003 61.1452 269.934 61.0102 269.382 61.1564Z" fill="white"/>
<path d="M282.343 61.2127C280.891 61.6064 280.036 63.2602 280.329 65.1502C280.475 66.0839 280.711 66.5789 281.251 67.0627C281.803 67.5577 282.433 67.7264 283.501 67.6702C284.784 67.5914 285.425 67.1977 285.988 66.1177C286.224 65.6677 286.258 65.4652 286.258 64.3177C286.258 63.1027 286.235 62.9902 285.931 62.4389C285.751 62.1127 285.425 61.7302 285.2 61.5727C284.48 61.0777 283.378 60.9427 282.343 61.2127ZM284.289 62.3939C284.795 62.7652 284.998 63.2714 285.054 64.2502C285.088 65.0377 285.054 65.2289 284.829 65.6564C284.458 66.3877 284.075 66.6239 283.288 66.6239C282.86 66.6239 282.545 66.5564 282.331 66.4214C281.341 65.7689 281.285 63.3502 282.241 62.4839C282.736 62.0339 283.738 61.9889 284.289 62.3939Z" fill="white"/>
<path d="M289.993 61.2127C289.768 61.2914 289.408 61.4939 289.194 61.6627L288.8 61.9552L288.766 61.5952C288.733 61.2352 288.71 61.2239 288.226 61.2239H287.72V64.3739V67.5239L288.316 67.5577L288.901 67.5914V65.4202V63.2377L289.329 62.8327C289.858 62.3264 290.139 62.1802 290.623 62.1802C291.039 62.1802 291.399 62.4839 291.59 63.0014C291.669 63.1814 291.714 64.2164 291.714 65.4539V67.5802H292.344H292.974L292.929 65.1277C292.895 62.8439 292.884 62.6527 292.636 62.1577C292.479 61.8427 292.209 61.5277 291.984 61.3927C291.5 61.0889 290.555 60.9989 289.993 61.2127Z" fill="white"/>
<path d="M190.058 61.3252C190.002 61.4602 191.51 66.6014 191.813 67.3214C191.903 67.5464 192.005 67.5802 192.59 67.5802C193.118 67.5802 193.287 67.5352 193.366 67.3777C193.422 67.2764 193.681 66.3764 193.94 65.3864C194.21 64.3964 194.457 63.5414 194.502 63.4964C194.547 63.4514 194.671 63.7327 194.783 64.1152C194.885 64.5089 195.155 65.4427 195.38 66.2077L195.785 67.5914L196.527 67.5577L197.258 67.5239L198.203 64.4977C198.721 62.8439 199.115 61.4039 199.081 61.3139C199.036 61.2014 198.867 61.1677 198.485 61.1902L197.956 61.2239L197.281 63.5527C196.91 64.8464 196.572 65.8927 196.538 65.8927C196.505 65.8927 196.167 64.8464 195.796 63.5527L195.121 61.2239L194.603 61.1902C194.187 61.1677 194.052 61.2014 193.973 61.3589C193.917 61.4714 193.602 62.5852 193.276 63.8452L192.668 66.1402L192.23 64.6327C191.993 63.8114 191.667 62.7089 191.498 62.1802L191.195 61.2239L190.655 61.1902C190.272 61.1677 190.103 61.2014 190.058 61.3252Z" fill="white"/>
<path d="M217.767 61.2352C217.722 61.2802 217.689 62.7314 217.689 64.4527V67.5914L218.285 67.5577L218.87 67.5239V64.3739V61.2239L218.364 61.1902C218.082 61.1677 217.812 61.1902 217.767 61.2352Z" fill="white"/>
<path d="M266.918 4.76751C266.918 3.15176 268.251 1.84064 269.898 1.84064C271.543 1.84064 272.875 3.15176 272.875 4.76751C272.875 6.38366 271.543 7.69458 269.898 7.69458C268.251 7.69458 266.918 6.38366 266.918 4.76751Z" fill="white"/>
<path d="M278.633 7.11018C278.633 5.85036 279.672 4.82914 280.953 4.82914C282.235 4.82914 283.274 5.85036 283.274 7.11018C283.274 8.3704 282.235 9.39103 280.953 9.39103C279.672 9.39103 278.633 8.3704 278.633 7.11018Z" fill="white"/>
<path d="M256.319 7.11018C256.319 5.85036 257.359 4.82914 258.641 4.82914C259.922 4.82914 260.96 5.85036 260.96 7.11018C260.96 8.3704 259.922 9.39103 258.641 9.39103C257.359 9.39103 256.319 8.3704 256.319 7.11018Z" fill="white"/>
<path d="M285.725 13.5355C285.725 12.3598 286.697 11.4036 287.894 11.4036C289.094 11.4036 290.064 12.3598 290.064 13.5355C290.064 14.7136 289.094 15.6672 287.894 15.6672C286.697 15.6672 285.725 14.7136 285.725 13.5355Z" fill="white"/>
<path d="M250.103 13.5355C250.103 12.3598 251.076 11.4036 252.272 11.4036C253.473 11.4036 254.443 12.3598 254.443 13.5355C254.443 14.7136 253.473 15.6672 252.272 15.6672C251.076 15.6672 250.103 14.7136 250.103 13.5355Z" fill="white"/>
<path d="M279.281 31.3461C280.177 32.9625 280.698 34.8335 280.698 36.8331C280.698 42.9199 275.95 47.8549 270.095 47.8549C264.237 47.8549 259.491 42.9199 259.491 36.8331C259.491 34.8335 260.011 32.9634 260.907 31.3467C259.094 33.4628 257.992 36.2061 257.992 39.211C257.992 45.8948 263.411 51.3134 270.095 51.3134C276.778 51.3134 282.196 45.8948 282.196 39.211C282.196 36.2061 281.094 33.4621 279.281 31.3461Z" fill="white"/>
<path d="M250.433 27.6921C248.185 27.1872 246.643 26.5925 246.051 25.9471C246.046 26.0988 246.039 26.2505 246.039 26.4036C246.039 33.0085 248.873 38.9639 253.388 43.1179C251.18 40.0275 249.879 36.2479 249.879 32.1695C249.879 30.6249 250.077 29.128 250.433 27.6921Z" fill="white"/>
<path d="M260.237 29.0028C257.374 28.7951 254.803 28.4999 252.648 28.1385C252.189 29.8674 251.936 31.9629 251.936 33.6431C251.936 38.863 254.311 43.5391 258.033 46.6501C256.617 44.5574 255.788 42.0373 255.788 39.3253C255.788 35.1317 257.291 31.4 260.237 29.0028Z" fill="white"/>
<path d="M279.908 29.0028C282.853 31.4 284.358 35.1317 284.358 39.3253C284.358 42.0373 283.53 44.5574 282.112 46.6501C285.835 43.5391 288.208 38.863 288.208 33.6431C288.208 31.9629 287.955 29.8674 287.497 28.1385C285.342 28.4999 282.771 28.7951 279.908 29.0028Z" fill="white"/>
<path d="M289.795 27.6921C290.151 29.1277 290.348 30.6249 290.348 32.1695C290.348 36.2479 289.047 40.0275 286.84 43.1179C291.355 38.9639 294.189 33.0085 294.189 26.4036C294.189 26.2505 294.181 26.0988 294.175 25.9471C293.584 26.5925 292.042 27.1866 289.795 27.6921Z" fill="white"/>
<path d="M287.528 21.2452C288.623 21.657 289.431 22.1546 289.239 22.5966C288.436 24.4415 283.674 25.0677 279.957 25.3987C273.682 25.9571 266.966 26.0872 265.164 25.9571C274.135 27.2135 278.414 27.5585 283.532 27.2074C287.532 26.9329 293.341 25.7071 293.683 23.8427C293.864 22.8586 291.351 21.9305 287.528 21.2452Z" fill="white"/>
<path d="M274.438 28.1376C266.781 27.3367 265.496 27.2375 259.761 26.2571C254.535 25.4079 251.317 24.1426 251.153 22.5964C251.1 22.0935 251.825 21.6127 253.02 21.1854C248.995 21.8771 246.439 22.8152 246.519 23.8425C246.7 26.1695 256.609 27.7084 261.036 28.0034C265.352 28.3094 268.207 28.4098 274.438 28.1376Z" fill="white"/>
<path d="M247.313 21.5538C247.313 21.5538 253.957 17.8206 269.229 17.3499C284.644 16.8754 292.851 21.5538 292.851 21.5538C292.851 21.5538 284.409 15.2117 269.229 15.6486C254.049 16.0853 247.313 21.5538 247.313 21.5538Z" fill="white"/>
</svg>
