<svg width="17" height="16" viewBox="0 0 17 16" fill="none" xmlns="http://www.w3.org/2000/svg">
<g clip-path="url(#clip0)">
<path opacity="0.4" fill-rule="evenodd" clip-rule="evenodd" d="M9.94378 13.5141C9.84376 13.4136 9.70811 13.3572 9.56666 13.3572H7.43333C7.42449 13.3572 7.41567 13.3574 7.40688 13.3578C7.27506 13.3644 7.14997 13.4199 7.0562 13.5141C6.95618 13.6145 6.89999 13.7508 6.89999 13.8929V14.9643C6.89999 15.1064 6.95618 15.2426 7.0562 15.3431C7.15622 15.4436 7.29188 15.5 7.43333 15.5H9.56666C9.70811 15.5 9.84376 15.4436 9.94378 15.3431C10.0438 15.2426 10.1 15.1064 10.1 14.9643V13.8929C10.1 13.7508 10.0438 13.6145 9.94378 13.5141ZM7.43333 4.78576H3.16666C3.02522 4.78576 2.88956 4.8422 2.78954 4.94266C2.68952 5.04313 2.63333 5.17939 2.63333 5.32147V6.39289C2.63333 6.53497 2.68952 6.67123 2.78954 6.7717C2.88956 6.87217 3.02522 6.92861 3.16666 6.92861H7.43333H9.56666H13.8333C13.9748 6.92861 14.1104 6.87217 14.2104 6.7717C14.3105 6.67123 14.3667 6.53497 14.3667 6.39289V5.32147C14.3667 5.17939 14.3105 5.04313 14.2104 4.94266C14.1104 4.8422 13.9748 4.78576 13.8333 4.78576H9.56666H7.43333ZM7.43333 9.07146H5.3C5.15855 9.07146 5.02289 9.1279 4.92287 9.22836C4.82285 9.32883 4.76666 9.46509 4.76666 9.60717V10.6786C4.76666 10.8207 4.82285 10.9569 4.92287 11.0574C5.02289 11.1579 5.15855 11.2143 5.3 11.2143H7.43333H9.56666H11.7C11.8414 11.2143 11.9771 11.1579 12.0771 11.0574C12.1771 10.9569 12.2333 10.8207 12.2333 10.6786V9.60717C12.2333 9.46509 12.1771 9.32883 12.0771 9.22836C11.9771 9.1279 11.8414 9.07146 11.7 9.07146H9.56666H7.43333ZM7.43333 0.500061H1.03333C0.891884 0.500061 0.756228 0.556502 0.656209 0.656967C0.55619 0.757433 0.5 0.893693 0.5 1.03577V2.1072C0.5 2.24928 0.55619 2.38554 0.656209 2.486C0.756228 2.58647 0.891884 2.64291 1.03333 2.64291H7.43333H9.56666H15.9667C16.1081 2.64291 16.2438 2.58647 16.3438 2.486C16.4438 2.38554 16.5 2.24928 16.5 2.1072V1.03577C16.5 0.893693 16.4438 0.757433 16.3438 0.656967C16.2438 0.556502 16.1081 0.500061 15.9667 0.500061H9.56666H7.43333Z" fill="white"/>
<path fill-rule="evenodd" clip-rule="evenodd" d="M9.94383 13.514C9.84381 13.4135 9.70816 13.3571 9.56671 13.3571H8.23338C8.22454 13.3571 8.21572 13.3573 8.20693 13.3577C8.07511 13.3643 7.95002 13.4198 7.85626 13.514C7.75624 13.6145 7.70005 13.7507 7.70005 13.8928V14.9642C7.70005 15.1063 7.75624 15.2426 7.85626 15.343C7.95627 15.4435 8.09193 15.4999 8.23338 15.4999H9.56671C9.70816 15.4999 9.84381 15.4435 9.94383 15.343C10.0439 15.2426 10.1 15.1063 10.1 14.9642V13.8928C10.1 13.7507 10.0439 13.6145 9.94383 13.514ZM11.7 4.7857H6.26671C6.12527 4.7857 5.98961 4.84214 5.88959 4.94261C5.78957 5.04307 5.73338 5.17933 5.73338 5.32141V6.39284C5.73338 6.53492 5.78957 6.67118 5.88959 6.77164C5.98961 6.87211 6.12527 6.92855 6.26671 6.92855H11.7H13.8334C13.9748 6.92855 14.1105 6.87211 14.2105 6.77164C14.3105 6.67118 14.3667 6.53492 14.3667 6.39284V5.32141C14.3667 5.17933 14.3105 5.04307 14.2105 4.94261C14.1105 4.84214 13.9748 4.7857 13.8334 4.7857H11.7ZM10.3667 9.07139H7.16671C7.02526 9.07139 6.88961 9.12783 6.78959 9.2283C6.68957 9.32877 6.63338 9.46503 6.63338 9.60711V10.6785C6.63338 10.8206 6.68957 10.9569 6.78959 11.0573C6.88961 11.1578 7.02526 11.2142 7.16671 11.2142H10.3667H10.6334H11.7C11.8415 11.2142 11.9771 11.1578 12.0772 11.0573C12.1772 10.9569 12.2334 10.8206 12.2334 10.6785V9.60711C12.2334 9.46503 12.1772 9.32877 12.0772 9.2283C11.9771 9.12783 11.8415 9.07139 11.7 9.07139H10.6334H10.3667ZM13.8334 0.500002L5.15003 0.5C5.00858 0.5 4.87293 0.556441 4.77291 0.656906C4.67289 0.757372 4.6167 0.893632 4.6167 1.03571V2.10714C4.6167 2.24922 4.67289 2.38548 4.77291 2.48594C4.87293 2.58641 5.00858 2.64285 5.15003 2.64285L13.8334 2.64285H15.9667C16.1082 2.64285 16.2438 2.58641 16.3438 2.48594C16.4438 2.38548 16.5 2.24922 16.5 2.10714V1.03571C16.5 0.893635 16.4438 0.757374 16.3438 0.656909C16.2438 0.556443 16.1082 0.500002 15.9667 0.500002H13.8334Z" fill="white"/>
</g>
<defs>
<clipPath id="clip0">
<rect width="16" height="16" fill="white" transform="translate(0.5)"/>
</clipPath>
</defs>
</svg>
