<svg width="25" height="25" viewBox="0 0 25 25" fill="none" xmlns="http://www.w3.org/2000/svg">
<path opacity="0.6" d="M12.5 15.5968C11.679 15.5959 10.8918 15.2693 10.3112 14.6888C9.73068 14.1082 9.40412 13.321 9.40323 12.5C9.40323 11.0992 10.3444 9.92629 11.6232 9.545L14.2903 6.87694L14.1877 6.56823C13.6482 6.41484 13.0894 6.30645 12.5 6.30645C11.275 6.30645 10.0776 6.6697 9.05905 7.35025C8.04052 8.03081 7.24668 8.99811 6.77791 10.1298C6.30913 11.2616 6.18648 12.5069 6.42546 13.7083C6.66444 14.9097 7.25432 16.0133 8.1205 16.8795C8.98668 17.7457 10.0903 18.3356 11.2917 18.5745C12.4931 18.8135 13.7384 18.6909 14.8702 18.2221C16.0019 17.7533 16.9692 16.9595 17.6497 15.941C18.3303 14.9224 18.6935 13.725 18.6935 12.5C18.6935 11.9106 18.5852 11.3518 18.4313 10.8118L18.1231 10.7097L15.455 13.3777C15.2674 14.0167 14.8783 14.5779 14.3458 14.9778C13.8134 15.3776 13.1659 15.5948 12.5 15.5968ZM23.9402 8.87581L22.2224 10.5935C21.9598 10.8539 21.6431 11.0532 21.2948 11.1776C22.0642 16.0739 18.7187 20.6663 13.8224 21.4356C8.92613 22.205 4.33371 18.859 3.56435 13.9632C2.795 9.06742 6.14097 4.47452 11.0368 3.70516C11.9647 3.55959 12.9097 3.56041 13.8374 3.70758C13.9568 3.35972 14.1511 3.04227 14.4065 2.77758L16.1242 1.05984C14.952 0.688549 13.7296 0.49973 12.5 0.5C5.87097 0.5 0.5 5.87097 0.5 12.5C0.5 19.129 5.87097 24.5 12.5 24.5C19.129 24.5 24.5 19.129 24.5 12.5C24.5003 11.2704 24.3114 10.048 23.9402 8.87581Z" fill="black"/>
<path d="M15.5002 3.87259L18.5815 0.790327C18.7013 0.670884 18.8496 0.583973 19.0124 0.53781C19.1752 0.491647 19.347 0.487756 19.5117 0.526507C19.6764 0.565257 19.8285 0.645367 19.9536 0.759265C20.0787 0.873163 20.1727 1.01708 20.2267 1.17742L21.1243 3.87017L23.8175 4.76775C23.9778 4.82174 24.1217 4.91573 24.2356 5.04083C24.3495 5.16594 24.4296 5.31802 24.4684 5.48271C24.5071 5.6474 24.5033 5.81925 24.4571 5.98202C24.4109 6.14478 24.324 6.29309 24.2046 6.41291L21.1276 9.50001C20.9973 9.63047 20.8333 9.72218 20.6538 9.7649C20.4744 9.80761 20.2867 9.79967 20.1115 9.74194L17.7067 8.94017L13.3228 13.3226C13.1046 13.5407 12.8087 13.6633 12.5002 13.6633C12.1917 13.6633 11.8958 13.5407 11.6776 13.3226C11.4595 13.1044 11.3369 12.8085 11.3369 12.5C11.3369 12.1915 11.4595 11.8956 11.6776 11.6774L16.061 7.29404L15.2583 4.8892C15.2005 4.71397 15.1925 4.52612 15.2352 4.34661C15.2779 4.1671 15.3697 4.00298 15.5002 3.87259Z" fill="black"/>
</svg>
