<svg width="17" height="19" viewBox="0 0 17 19" fill="none" xmlns="http://www.w3.org/2000/svg">
<g clip-path="url(#clip0)">
<path opacity="0.4" d="M8.5 2.5C4.08065 2.5 0.5 6.08323 0.5 10.5C0.5 14.9168 4.08065 18.5 8.5 18.5C12.9194 18.5 16.5 14.9194 16.5 10.5C16.5 6.08065 12.9194 2.5 8.5 2.5ZM8.5 6.04839C8.76796 6.04839 9.02991 6.12785 9.25271 6.27672C9.47551 6.42559 9.64916 6.63719 9.75171 6.88475C9.85425 7.13232 9.88108 7.40473 9.82881 7.66754C9.77653 7.93035 9.64749 8.17176 9.45802 8.36124C9.26854 8.55072 9.02713 8.67975 8.76432 8.73203C8.5015 8.78431 8.22909 8.75748 7.98153 8.65493C7.73396 8.55239 7.52236 8.37874 7.37349 8.15593C7.22462 7.93313 7.14516 7.67119 7.14516 7.40323C7.14516 7.0439 7.2879 6.69929 7.54198 6.44521C7.79607 6.19113 8.14067 6.04839 8.5 6.04839ZM10.3065 14.2419C10.3065 14.3446 10.2657 14.4431 10.1931 14.5157C10.1205 14.5882 10.022 14.629 9.91935 14.629H7.08065C6.97798 14.629 6.87952 14.5882 6.80693 14.5157C6.73433 14.4431 6.69355 14.3446 6.69355 14.2419V13.4677C6.69355 13.3651 6.73433 13.2666 6.80693 13.194C6.87952 13.1214 6.97798 13.0806 7.08065 13.0806H7.46774V11.0161H7.08065C6.97798 11.0161 6.87952 10.9753 6.80693 10.9028C6.73433 10.8302 6.69355 10.7317 6.69355 10.629V9.85484C6.69355 9.75217 6.73433 9.65371 6.80693 9.58112C6.87952 9.50853 6.97798 9.46774 7.08065 9.46774H9.14516C9.24782 9.46774 9.34629 9.50853 9.41888 9.58112C9.49148 9.65371 9.53226 9.75217 9.53226 9.85484V13.0806H9.91935C10.022 13.0806 10.1205 13.1214 10.1931 13.194C10.2657 13.2666 10.3065 13.3651 10.3065 13.4677V14.2419Z" fill="white"/>
<path d="M8.49981 8.75805C8.76777 8.75805 9.02972 8.67859 9.25252 8.52972C9.47532 8.38085 9.64897 8.16925 9.75152 7.92168C9.85406 7.67412 9.88089 7.40171 9.82862 7.13889C9.77634 6.87608 9.6473 6.63467 9.45783 6.44519C9.26835 6.25572 9.02694 6.12668 8.76413 6.0744C8.50131 6.02213 8.2289 6.04896 7.98134 6.1515C7.73377 6.25405 7.52218 6.4277 7.3733 6.6505C7.22443 6.8733 7.14497 7.13525 7.14497 7.40321C7.14497 7.76254 7.28771 8.10714 7.5418 8.36123C7.79588 8.61531 8.14049 8.75805 8.49981 8.75805ZM9.91917 13.0806H9.53207V9.85482C9.53207 9.75216 9.49129 9.6537 9.41869 9.5811C9.3461 9.50851 9.24764 9.46773 9.14497 9.46773H7.08046C6.97779 9.46773 6.87933 9.50851 6.80674 9.5811C6.73414 9.6537 6.69336 9.75216 6.69336 9.85482V10.629C6.69336 10.7317 6.73414 10.8301 6.80674 10.9027C6.87933 10.9753 6.97779 11.0161 7.08046 11.0161H7.46755V13.0806H7.08046C6.97779 13.0806 6.87933 13.1214 6.80674 13.194C6.73414 13.2666 6.69336 13.3651 6.69336 13.4677V14.2419C6.69336 14.3446 6.73414 14.443 6.80674 14.5156C6.87933 14.5882 6.97779 14.629 7.08046 14.629H9.91917C10.0218 14.629 10.1203 14.5882 10.1929 14.5156C10.2655 14.443 10.3063 14.3446 10.3063 14.2419V13.4677C10.3063 13.3651 10.2655 13.2666 10.1929 13.194C10.1203 13.1214 10.0218 13.0806 9.91917 13.0806Z" fill="white"/>
</g>
<defs>
<clipPath id="clip0">
<rect width="16" height="18" fill="white" transform="translate(0.5 0.5)"/>
</clipPath>
</defs>
</svg>
