<svg width="17" height="16" viewBox="0 0 17 16" fill="none" xmlns="http://www.w3.org/2000/svg">
<g clip-path="url(#clip0)">
<path opacity="0.4" d="M2.5 15C2.5 15.2652 2.60536 15.5196 2.79289 15.7071C2.98043 15.8946 3.23478 16 3.5 16H13.5C13.7652 16 14.0196 15.8946 14.2071 15.7071C14.3946 15.5196 14.5 15.2652 14.5 15V12H2.5V15ZM12 3C11.8674 3 11.7402 2.94732 11.6464 2.85355C11.5527 2.75979 11.5 2.63261 11.5 2.5V0H3.5C3.23478 0 2.98043 0.105357 2.79289 0.292893C2.60536 0.48043 2.5 0.734784 2.5 1V7H14.5V3H12Z" fill="#353535"/>
<path d="M12 2.99995H14.5V2.85682C14.5 2.70831 14.441 2.56589 14.3359 2.46089L12.0413 0.164011C11.9889 0.11182 11.9267 0.0704666 11.8584 0.0423152C11.79 0.0141638 11.7167 -0.000233023 11.6428 -5.17143e-05H11.5V2.49995C11.5 2.63256 11.5527 2.75973 11.6464 2.8535C11.7402 2.94727 11.8674 2.99995 12 2.99995ZM14.5 5.99995V6.99995H2.5V5.99995C1.96957 5.99995 1.46086 6.21066 1.08579 6.58574C0.710714 6.96081 0.5 7.46952 0.5 7.99995L0.5 11.4999C0.5 11.6326 0.552678 11.7597 0.646447 11.8535C0.740215 11.9473 0.867392 12 1 12H16C16.1326 12 16.2598 11.9473 16.3536 11.8535C16.4473 11.7597 16.5 11.6326 16.5 11.4999V7.99995C16.5 7.46952 16.2893 6.96081 15.9142 6.58574C15.5391 6.21066 15.0304 5.99995 14.5 5.99995ZM14 10.2499C13.8517 10.2499 13.7067 10.206 13.5833 10.1236C13.46 10.0411 13.3639 9.92401 13.3071 9.78696C13.2503 9.64992 13.2355 9.49912 13.2644 9.35363C13.2934 9.20815 13.3648 9.07451 13.4697 8.96962C13.5746 8.86473 13.7082 8.7933 13.8537 8.76436C13.9992 8.73542 14.15 8.75027 14.287 8.80704C14.4241 8.86381 14.5412 8.95994 14.6236 9.08327C14.706 9.20661 14.75 9.35161 14.75 9.49995C14.75 9.69886 14.671 9.88963 14.5303 10.0303C14.3897 10.1709 14.1989 10.2499 14 10.2499Z" fill="#353535"/>
</g>
<defs>
<clipPath id="clip0">
<rect width="16" height="16" fill="white" transform="translate(0.5)"/>
</clipPath>
</defs>
</svg>
