<svg width="15" height="16" viewBox="0 0 15 16" fill="none" xmlns="http://www.w3.org/2000/svg">
<g clip-path="url(#clip0)">
<path d="M8.4545 5.32508L10.5037 7.37424H1.25C0.835781 7.37424 0.5 7.71002 0.5 8.12424V8.87424C0.5 9.28846 0.835781 9.62424 1.25 9.62424H10.5037L8.4545 11.6734C8.16159 11.9663 8.16159 12.4412 8.4545 12.7341L8.98484 13.2644C9.27775 13.5573 9.75262 13.5573 10.0455 13.2644L14.2803 9.02955C14.5732 8.73665 14.5732 8.26177 14.2803 7.9689L10.0455 3.73408C9.75259 3.44118 9.27772 3.44118 8.98484 3.73408L8.4545 4.26443C8.16159 4.5573 8.16159 5.03218 8.4545 5.32508Z" fill="#333333"/>
</g>
<defs>
<clipPath id="clip0">
<rect width="14" height="16" fill="white" transform="translate(0.5)"/>
</clipPath>
</defs>
</svg>
