<svg width="15" height="11" viewBox="0 0 15 11" fill="none" xmlns="http://www.w3.org/2000/svg">
<path d="M6.5455 2.32586L4.49631 4.37502H13.75C14.1642 4.37502 14.5 4.7108 14.5 5.12502V5.87502C14.5 6.28924 14.1642 6.62502 13.75 6.62502H4.49631L6.5455 8.67417C6.83841 8.96708 6.83841 9.44195 6.5455 9.73483L6.01516 10.2652C5.72225 10.5581 5.24738 10.5581 4.9545 10.2652L0.719689 6.03033C0.426783 5.73742 0.426783 5.26255 0.719689 4.96967L4.9545 0.734862C5.24741 0.441956 5.72228 0.441956 6.01516 0.734862L6.5455 1.26521C6.83841 1.55808 6.83841 2.03296 6.5455 2.32586Z" fill="white"/>
</svg>
