<svg width="32" height="32" viewBox="0 0 32 32" fill="none" xmlns="http://www.w3.org/2000/svg">
<path d="M15.7583 13.3634L13.6288 14.4711C13.0244 13.216 12.0109 13.1935 11.8686 13.1935C10.45 13.1935 9.7391 14.1301 9.7391 16.0038C9.7391 17.5147 10.3295 18.814 11.8686 18.814C12.7962 18.814 13.4487 18.3596 13.8282 17.4512L15.7865 18.4448C15.391 19.1826 14.1397 20.9435 11.6135 20.9435C10.1647 20.9435 6.87244 20.282 6.87244 16.0044C6.87244 12.2423 9.62885 11.0647 11.5282 11.0647C13.4974 11.064 14.9064 11.8307 15.7583 13.3634ZM24.9282 13.3634L22.8269 14.4711C22.218 13.2038 21.1782 13.1935 21.0385 13.1935C19.6192 13.1935 18.909 14.1301 18.909 16.0038C18.909 17.5134 19.5006 18.814 21.0385 18.814C21.9647 18.814 22.6186 18.3596 22.9962 17.4512L24.9833 18.4448C24.8487 18.6852 23.6122 20.9435 20.8109 20.9435C19.3564 20.9435 16.0699 20.3108 16.0699 16.0044C16.0699 12.2435 18.8244 11.0647 20.7256 11.0647C22.6942 11.064 24.0962 11.8307 24.9282 13.3634ZM15.8692 0.105713C6.7141 0.105713 0 7.48135 0 16.0031C0 24.8807 7.28205 31.9006 15.8692 31.9006C24.1981 31.9006 31.7949 25.4346 31.7949 16.0031C31.7949 7.16533 24.9603 0.105713 15.8692 0.105713ZM15.925 29.0038C8.7109 29.0038 2.86731 23.0397 2.86731 16.0031C2.86731 9.24545 8.34359 2.97302 15.9263 2.97302C23.1397 2.97302 28.9276 8.70764 28.9276 16.0025C28.9269 23.8031 22.5378 29.0038 15.925 29.0038Z" fill="white"/>
</svg>
