<svg width="80" height="80" viewBox="0 0 80 80" fill="none" xmlns="http://www.w3.org/2000/svg">
<path d="M38.1149 17.9242C38.1149 16.862 38.9889 16 40.0691 16C41.1471 16 42.021 16.862 42.021 17.9242C42.021 18.9867 41.1471 19.8486 40.0691 19.8486C38.9889 19.8486 38.1149 18.9867 38.1149 17.9242Z" fill="white"/>
<path d="M45.7957 19.4643C45.7957 18.6361 46.4773 17.9647 47.3169 17.9647C48.1577 17.9647 48.8389 18.6361 48.8389 19.4643C48.8389 20.2928 48.1577 20.9638 47.3169 20.9638C46.4773 20.9638 45.7957 20.2928 45.7957 19.4643Z" fill="white"/>
<path d="M31.166 19.4643C31.166 18.6361 31.8479 17.9647 32.6881 17.9647C33.5282 17.9647 34.2089 18.6361 34.2089 19.4643C34.2089 20.2928 33.5282 20.9638 32.6881 20.9638C31.8479 20.9638 31.166 20.2928 31.166 19.4643Z" fill="white"/>
<path d="M50.4456 23.6885C50.4456 22.9156 51.0833 22.287 51.8676 22.287C52.6547 22.287 53.2908 22.9156 53.2908 23.6885C53.2908 24.463 52.6547 25.09 51.8676 25.09C51.0833 25.09 50.4456 24.463 50.4456 23.6885Z" fill="white"/>
<path d="M27.0907 23.6885C27.0907 22.9156 27.7283 22.287 28.5127 22.287C29.2997 22.287 29.9358 22.9156 29.9358 23.6885C29.9358 24.463 29.2997 25.09 28.5127 25.09C27.7283 25.09 27.0907 24.463 27.0907 23.6885Z" fill="white"/>
<path d="M46.221 35.3977C46.8082 36.4603 47.1497 37.6904 47.1497 39.005C47.1497 43.0067 44.037 46.2511 40.1979 46.2511C36.3572 46.2511 33.2459 43.0067 33.2459 39.005C33.2459 37.6904 33.5866 36.461 34.174 35.3981C32.9856 36.7893 32.2631 38.5928 32.2631 40.5683C32.2631 44.9624 35.8156 48.5248 40.1979 48.5248C44.5796 48.5248 48.1323 44.9624 48.1323 40.5683C48.1323 38.5928 47.4096 36.7888 46.221 35.3977Z" fill="white"/>
<path d="M27.307 32.9957C25.8331 32.6637 24.8221 32.2727 24.4342 31.8484C24.4307 31.9481 24.4258 32.0479 24.4258 32.1485C24.4258 36.4908 26.2842 40.406 29.2447 43.137C27.7968 41.1053 26.944 38.6205 26.944 35.9392C26.944 34.9237 27.0735 33.9397 27.307 32.9957Z" fill="white"/>
<path d="M33.7345 33.8573C31.8577 33.7208 30.1719 33.5267 28.7594 33.2891C28.4585 34.4257 28.2924 35.8034 28.2924 36.908C28.2924 40.3397 29.8495 43.4139 32.2895 45.4592C31.3612 44.0834 30.8179 42.4266 30.8179 40.6436C30.8179 37.8867 31.8035 35.4333 33.7345 33.8573Z" fill="white"/>
<path d="M46.6315 33.8573C48.5629 35.4333 49.5493 37.8867 49.5493 40.6436C49.5493 42.4266 49.0063 44.0834 48.0769 45.4592C50.5179 43.4139 52.0739 40.3397 52.0739 36.908C52.0739 35.8034 51.9079 34.4257 51.6073 33.2891C50.1947 33.5267 48.5088 33.7208 46.6315 33.8573Z" fill="white"/>
<path d="M53.1143 32.9957C53.3475 33.9394 53.4766 34.9237 53.4766 35.9392C53.4766 38.6205 52.6237 41.1053 51.1768 43.137C54.1371 40.406 55.9949 36.4908 55.9949 32.1485C55.9949 32.0479 55.9897 31.9481 55.9858 31.8484C55.5982 32.2727 54.5876 32.6633 53.1143 32.9957Z" fill="white"/>
<path d="M51.6281 28.7572C52.3459 29.0279 52.8753 29.3551 52.7494 29.6457C52.223 30.8586 49.1006 31.2702 46.6639 31.4878C42.5501 31.8549 38.1468 31.9405 36.9653 31.8549C42.8468 32.681 45.6522 32.9077 49.0077 32.677C51.6306 32.4964 55.4387 31.6906 55.6631 30.4649C55.7818 29.8179 54.1344 29.2078 51.6281 28.7572Z" fill="white"/>
<path d="M43.0455 33.2885C38.0251 32.7619 37.1829 32.6967 33.4228 32.0522C29.996 31.4939 27.8862 30.662 27.7791 29.6455C27.7443 29.3149 28.2193 28.9988 29.003 28.7179C26.3641 29.1726 24.6883 29.7893 24.7406 30.4647C24.8591 31.9946 31.3559 33.0063 34.2583 33.2002C37.0886 33.4014 38.9602 33.4674 43.0455 33.2885Z" fill="white"/>
<path d="M25.2616 28.9601C25.2616 28.9601 29.6176 26.5057 39.6302 26.1962C49.737 25.8843 55.1176 28.9601 55.1176 28.9601C55.1176 28.9601 49.583 24.7905 39.6302 25.0778C29.6776 25.3649 25.2616 28.9601 25.2616 28.9601Z" fill="white"/>
<path d="M21.2015 63.5533C20.7954 63.749 19.8313 63.9918 18.6122 63.9918C15.104 63.9918 13.297 61.7868 13.297 58.8878C13.297 55.4292 15.7661 53.512 18.8368 53.512C20.0273 53.512 20.9296 53.7531 21.3377 53.9505L20.8554 55.7772C20.4045 55.5802 19.7568 55.3999 18.9275 55.3999C17.121 55.3999 15.7051 56.5014 15.7051 58.7662C15.7051 60.7899 16.9103 62.0734 18.9428 62.0734C19.6512 62.0734 20.4045 61.9381 20.87 61.7412L21.2015 63.5533Z" fill="white"/>
<path d="M25.0435 53.6561H22.7538V63.8337H25.0435V53.6561Z" fill="white"/>
<path d="M29.4022 63.8337L26.1502 53.6561H28.665L29.9005 57.9605C30.2457 59.1833 30.5621 60.3313 30.8023 61.5983H30.848C31.1043 60.3767 31.4207 59.168 31.7658 58.005L33.0618 53.6561H35.5014L32.0822 63.8337H29.4022Z" fill="white"/>
<path d="M38.8886 53.6561H36.5999V63.8337H38.8886V53.6561Z" fill="white"/>
<path d="M48.3193 63.5533C47.9137 63.749 46.9496 63.9918 45.7303 63.9918C42.2215 63.9918 40.4141 61.7868 40.4141 58.8878C40.4141 55.4292 42.8841 53.512 45.9554 53.512C47.1463 53.512 48.0487 53.7531 48.4559 53.9505L47.9743 55.7772C47.5223 55.5802 46.8748 55.3999 46.046 55.3999C44.239 55.3999 42.8243 56.5014 42.8243 58.7662C42.8243 60.7899 44.0285 62.0734 46.0611 62.0734C46.7702 62.0734 47.5223 61.9381 47.9879 61.7412L48.3193 63.5533Z" fill="white"/>
<path d="M52.1586 53.6561V59.5007C52.1586 61.2669 52.8366 62.1577 53.9972 62.1577C55.2013 62.1577 55.8637 61.312 55.8637 59.5007V53.6561H58.1524V59.3644C58.1524 62.5048 56.5715 64 53.9209 64C51.3598 64 49.8707 62.5647 49.8707 59.3341V53.6561H52.1586Z" fill="white"/>
<path d="M60.2128 61.4693C60.8158 61.7868 61.7784 62.1039 62.7581 62.1039C63.8116 62.1039 64.3694 61.6652 64.3694 61.0013C64.3694 60.3671 63.8882 60.0053 62.6679 59.5827C60.9808 58.9773 59.8678 58.0422 59.8678 56.562C59.8678 54.8254 61.3281 53.512 63.706 53.512C64.8665 53.512 65.6939 53.7383 66.2977 54.0249L65.7846 55.8672C65.3936 55.6716 64.6551 55.385 63.6775 55.385C62.6827 55.385 62.2004 55.852 62.2004 56.3662C62.2004 57.0157 62.7581 57.3013 64.0825 57.8C65.8762 58.4653 66.703 59.4008 66.703 60.8349C66.703 62.5424 65.4082 63.9918 62.6224 63.9918C61.4626 63.9918 60.3184 63.6745 59.7457 63.3568L60.2128 61.4693Z" fill="white"/>
</svg>
