<svg width="28" height="28" viewBox="0 0 28 28" fill="none" xmlns="http://www.w3.org/2000/svg">
<path d="M16.9703 14.0004L25.9446 5.02616L27.7952 3.17547C28.0683 2.90247 28.0683 2.45883 27.7952 2.18582L25.8151 0.205632C25.542 -0.0673769 25.0984 -0.0673769 24.8254 0.205632L14.0004 11.0306L3.17547 0.204756C2.90247 -0.0682521 2.45883 -0.0682521 2.18582 0.204756L0.204756 2.18494C-0.0682521 2.45795 -0.0682521 2.90159 0.204756 3.1746L11.0306 14.0004L0.204756 24.8254C-0.0682521 25.0984 -0.0682521 25.542 0.204756 25.8151L2.18494 27.7952C2.45795 28.0683 2.90159 28.0683 3.1746 27.7952L14.0004 16.9703L22.9747 25.9446L24.8254 27.7952C25.0984 28.0683 25.542 28.0683 25.8151 27.7952L27.7952 25.8151C28.0683 25.542 28.0683 25.0984 27.7952 24.8254L16.9703 14.0004Z" fill="white"/>
</svg>
