<svg width="16" height="16" viewBox="0 0 16 16" fill="none" xmlns="http://www.w3.org/2000/svg">
<path d="M9.48514 8.00022L13.9723 3.51308L14.8976 2.58774C15.0341 2.45123 15.0341 2.22941 14.8976 2.09291L13.9075 1.10282C13.771 0.966312 13.5492 0.966312 13.4127 1.10282L8.00022 6.5153L2.58774 1.10238C2.45123 0.965874 2.22941 0.965874 2.09291 1.10238L1.10238 2.09247C0.965874 2.22898 0.965874 2.4508 1.10238 2.5873L6.5153 8.00022L1.10238 13.4127C0.965874 13.5492 0.965874 13.771 1.10238 13.9075L2.09247 14.8976C2.22898 15.0341 2.4508 15.0341 2.5873 14.8976L8.00022 9.48514L12.4874 13.9723L13.4127 14.8976C13.5492 15.0341 13.771 15.0341 13.9075 14.8976L14.8976 13.9075C15.0341 13.771 15.0341 13.5492 14.8976 13.4127L9.48514 8.00022Z" fill="#1D2B4A"/>
</svg>
