<svg width="16" height="16" viewBox="0 0 16 16" fill="none" xmlns="http://www.w3.org/2000/svg">
<path opacity="0.6" d="M8 10.0645C7.45264 10.0639 6.92787 9.84622 6.54083 9.45917C6.15378 9.07213 5.93608 8.54736 5.93548 8C5.93548 7.06613 6.5629 6.28419 7.41548 6.03L9.19355 4.25129L9.12516 4.04548C8.76548 3.94323 8.3929 3.87097 8 3.87097C7.18335 3.87097 6.38505 4.11313 5.70603 4.56683C5.02702 5.02054 4.49779 5.66541 4.18527 6.41989C3.87276 7.17437 3.79099 8.00458 3.95031 8.80553C4.10963 9.60649 4.50288 10.3422 5.08033 10.9197C5.65779 11.4971 6.39351 11.8904 7.19447 12.0497C7.99542 12.209 8.82563 12.1272 9.58011 11.8147C10.3346 11.5022 10.9795 10.973 11.4332 10.294C11.8869 9.61495 12.129 8.81664 12.129 8C12.129 7.6071 12.0568 7.23452 11.9542 6.87452L11.7487 6.80645L9.97 8.58516C9.84492 9.01112 9.58556 9.38527 9.23056 9.65184C8.87557 9.91843 8.44394 10.0632 8 10.0645ZM15.6268 5.58387L14.4816 6.72903C14.3065 6.90258 14.0954 7.0355 13.8632 7.11839C14.3761 10.3826 12.1458 13.4442 8.88161 13.9571C5.61742 14.47 2.55581 12.2394 2.0429 8.97548C1.53 5.71161 3.76064 2.64968 7.02452 2.13677C7.64314 2.03973 8.27316 2.04027 8.89161 2.13839C8.97123 1.90648 9.10072 1.69484 9.27097 1.51839L10.4161 0.373226C9.63465 0.1257 8.81975 -0.000180028 8 1.93242e-07C3.58065 1.93242e-07 0 3.58065 0 8C0 12.4194 3.58065 16 8 16C12.4194 16 16 12.4194 16 8C16.0002 7.18025 15.8743 6.36535 15.6268 5.58387Z" fill="#1D2B4A"/>
<path d="M10.0001 2.24839L12.0543 0.193556C12.1342 0.113928 12.2331 0.0559874 12.3416 0.0252119C12.4501 -0.00556363 12.5647 -0.00815727 12.6745 0.0176762C12.7843 0.0435097 12.8857 0.0969167 12.9691 0.172848C13.0525 0.24878 13.1151 0.344728 13.1511 0.451621L13.7495 2.24678L15.545 2.84517C15.6519 2.88116 15.7478 2.94382 15.8238 3.02723C15.8997 3.11063 15.9531 3.21202 15.9789 3.32181C16.0048 3.4316 16.0022 3.54617 15.9714 3.65468C15.9406 3.76319 15.8827 3.86206 15.803 3.94194L13.7518 6.00001C13.6649 6.08699 13.5555 6.14812 13.4359 6.1766C13.3163 6.20508 13.1911 6.19978 13.0743 6.1613L11.4711 5.62678L8.54853 8.5484C8.40309 8.69384 8.20583 8.77554 8.00015 8.77554C7.79446 8.77554 7.5972 8.69384 7.45176 8.5484C7.30632 8.40295 7.22461 8.20569 7.22461 8.00001C7.22461 7.79432 7.30632 7.59706 7.45176 7.45162L10.374 4.52936L9.83886 2.92614C9.80031 2.80932 9.79498 2.68408 9.82346 2.56441C9.85194 2.44474 9.91311 2.33533 10.0001 2.24839Z" fill="#1D2B4A"/>
</svg>
