<svg width="25" height="21" viewBox="0 0 25 21" fill="none" xmlns="http://www.w3.org/2000/svg">
<path d="M23.8571 3.5H1.14286C0.787839 3.5 0.5 3.21216 0.5 2.85714V1.14286C0.5 0.787839 0.787839 0.5 1.14286 0.5H23.8571C24.2122 0.5 24.5 0.787839 24.5 1.14286V2.85714C24.5 3.21216 24.2122 3.5 23.8571 3.5ZM23.8571 12.0714H1.14286C0.787839 12.0714 0.5 11.7836 0.5 11.4286V9.71428C0.5 9.35927 0.787839 9.07143 1.14286 9.07143H23.8571C24.2122 9.07143 24.5 9.35927 24.5 9.71428V11.4286C24.5 11.7836 24.2122 12.0714 23.8571 12.0714ZM23.8571 20.6429H1.14286C0.787839 20.6429 0.5 20.355 0.5 20V18.2857C0.5 17.9307 0.787839 17.6429 1.14286 17.6429H23.8571C24.2122 17.6429 24.5 17.9307 24.5 18.2857V20C24.5 20.355 24.2122 20.6429 23.8571 20.6429Z" fill="white"/>
</svg>
